<svg xmlns="http://www.w3.org/2000/svg" id="svg2" version="1.1" xml:space="preserve" width="129.202" height="70.918"><defs id="defs6"><clipPath clipPathUnits="userSpaceOnUse" id="clipPath16"><path d="M0 56.735h103.362V0H0v56.735z" id="path18"/></clipPath></defs><g id="g10" transform="matrix(1.25 0 0 -1.25 0 70.918)"><g id="g12"><g id="g14" clip-path="url(#clipPath16)"><g id="g20" transform="translate(49.786 49.342)"><path d="M0 0c.141-.373.281-1.68-.046-2.194-.326-.513-.185-.654.141-.839.327-.188.467-.655.467-1.028s.233-.328.28-1.121c.046-.793.233-1.352.513-1.679.219-.256.179-.649.064-.944.392-.289.831-.568 1.217-.706.973-.348 1.322-.626 1.389-.973.072-.348.906-.975 1.115-.488.208.486.763.208 1.181.208.418 0 .488-.486.555-.763.07-.279 1.043-.141 1.393-.348.346-.209.485-.974.972-1.252.488-.277.903.348 1.252.139.347-.208 1.252-.416 1.808-.208.554.208.903-.208 1.598-.14.694.07 1.599-.207 1.807-.416.11-.109.698-.219 1.233-.299.139.285-.13 1.165-.087 1.382.045.232 1.679 1.68 1.96 2.007.28.326.701.326.933.746.234.421-.653 1.774-.84 2.055-.186.279-.279 1.399-.139 1.867.139.467-.701.747-.701 1.073 0 .327.793.888 1.214 1.073.42.188.281 1.495-.093 1.822-.374.327-.56.932-.328 1.587.234.652-1.399 1.166-1.633 1.166-.038 0-.062.042-.078.097-1.458-.27-5.19.118-5.472.231-.185.074-.657.244-1.064.388-.185-.308-.571-.591-1.151-.591-.901 0-.965.902-.995 1.306-.029.405-3.641-.343-4.607-1.306C2.895.887.653 1.261.593.732.546.348.21.148-.009.256A.52.52 0 0 1 0 0" id="path22" fill="#f0f0f0" fill-opacity="1" fill-rule="nonzero" stroke="none"/></g><g id="g24" transform="translate(49.786 49.342)"><path d="M0 0c.141-.373.281-1.68-.046-2.194-.326-.513-.185-.654.141-.839.327-.188.467-.655.467-1.028s.233-.328.28-1.121c.046-.793.233-1.352.513-1.679.219-.256.179-.649.064-.944.392-.289.831-.568 1.217-.706.973-.348 1.322-.626 1.389-.973.072-.348.906-.975 1.115-.488.208.486.763.208 1.181.208.418 0 .488-.486.555-.763.07-.279 1.043-.141 1.393-.348.346-.209.485-.974.972-1.252.488-.277.903.348 1.252.139.347-.208 1.252-.416 1.808-.208.554.208.903-.208 1.598-.14.694.07 1.599-.207 1.807-.416.11-.109.698-.219 1.233-.299.139.285-.13 1.165-.087 1.382.045.232 1.679 1.68 1.96 2.007.28.326.701.326.933.746.234.421-.653 1.774-.84 2.055-.186.279-.279 1.399-.139 1.867.139.467-.701.747-.701 1.073 0 .327.793.888 1.214 1.073.42.188.281 1.495-.093 1.822-.374.327-.56.932-.328 1.587.234.652-1.399 1.166-1.633 1.166-.038 0-.062.042-.078.097-1.458-.27-5.19.118-5.472.231-.185.074-.657.244-1.064.388-.185-.308-.571-.591-1.151-.591-.901 0-.965.902-.995 1.306-.029.405-3.641-.343-4.607-1.306C2.895.887.653 1.261.593.732.546.348.21.148-.009.256A.52.52 0 0 1 0 0z" id="path26" fill="none" stroke="#fff" stroke-width=".25" stroke-linecap="butt" stroke-linejoin="miter" stroke-miterlimit="10" stroke-dasharray="none" stroke-opacity="1"/></g><g id="g28" transform="translate(58.033 19.31)"><path d="M0 0c-.083.419 1.256 2.343 1.59 2.343.278 0 .383 1.849.264 2.81-1.037.717-1.899.961-1.899.961s-2.787.138-3.252.324c-.465.186-.93-.604-1.348-.279-.417.324-1.023-.092-.929-.557.093-.464.975-.745.975-1.441 0-.696 1.767-1.72 1.72-2.091-.032-.26 1.06-.969 1.711-1.924.347-.219.716-.504 1.081-.798.072.306.108.546.087.652" id="path30" fill="#f0f0f0" fill-opacity="1" fill-rule="nonzero" stroke="none"/></g><g id="g32" transform="translate(58.033 19.31)"><path d="M0 0c-.083.419 1.256 2.343 1.59 2.343.278 0 .383 1.849.264 2.81-1.037.717-1.899.961-1.899.961s-2.787.138-3.252.324c-.465.186-.93-.604-1.348-.279-.417.324-1.023-.092-.929-.557.093-.464.975-.745.975-1.441 0-.696 1.767-1.72 1.72-2.091-.032-.26 1.06-.969 1.711-1.924.347-.219.716-.504 1.081-.798.072.306.108.546.087.652z" id="path34" fill="none" stroke="#fff" stroke-width=".25" stroke-linecap="butt" stroke-linejoin="miter" stroke-miterlimit="10" stroke-dasharray="none" stroke-opacity="1"/></g><g id="g36" transform="translate(55.154 21.38)"><path d="M0 0c.047.371-1.72 1.395-1.72 2.091 0 .696-.883.976-.975 1.44-.094.466.511.882.929.558.418-.325.883.465 1.348.279.465-.186 3.252-.324 3.252-.324s.862-.244 1.899-.961a1.704 1.704 0 0 1-.097.451c-.25.587 0 1.255-.669 1.506-.345.129-.488.725-.549 1.273a21.422 21.422 0 0 0-.728-.211c-.555-.139-1.737-.069-2.155.487-.31.414-1.276 1.021-1.75 1.305-.194-.17-.935-.805-1.259-.843-.374-.048-.139-1.029-.513-1.029-.373 0-.654-.652-.747-.933-.093-.279-.932.187-1.307.048-.267-.102-1.054-.224-1.483-.286.065-.426.04-.897.379-.897.561 0 1.588.061 1.619-.685.029-.747 1.369-2.397 1.865-2.957.498-.561 1.619-.436 1.681-.903.063-.467.872-.902 1.806-.965.253-.016.558-.163.885-.369C1.06-.97-.032-.261 0 0" id="path38" fill="#f0f0f0" fill-opacity="1" fill-rule="nonzero" stroke="none"/></g><g id="g40" transform="translate(55.154 21.38)"><path d="M0 0c.047.371-1.72 1.395-1.72 2.091 0 .696-.883.976-.975 1.44-.094.466.511.882.929.558.418-.325.883.465 1.348.279.465-.186 3.252-.324 3.252-.324s.862-.244 1.899-.961a1.704 1.704 0 0 1-.097.451c-.25.587 0 1.255-.669 1.506-.345.129-.488.725-.549 1.273a21.422 21.422 0 0 0-.728-.211c-.555-.139-1.737-.069-2.155.487-.31.414-1.276 1.021-1.75 1.305-.194-.17-.935-.805-1.259-.843-.374-.048-.139-1.029-.513-1.029-.373 0-.654-.652-.747-.933-.093-.279-.932.187-1.307.048-.267-.102-1.054-.224-1.483-.286.065-.426.04-.897.379-.897.561 0 1.588.061 1.619-.685.029-.747 1.369-2.397 1.865-2.957.498-.561 1.619-.436 1.681-.903.063-.467.872-.902 1.806-.965.253-.016.558-.163.885-.369C1.06-.97-.032-.261 0 0z" id="path42" fill="none" stroke="#fff" stroke-width=".25" stroke-linecap="butt" stroke-linejoin="miter" stroke-miterlimit="10" stroke-dasharray="none" stroke-opacity="1"/></g><g id="g44" transform="translate(62.064 12.42)"><path d="M0 0c.467.092.187.466.514.793.326.326.699.979.747 1.213.005.025.022.043.045.058C.672 2.54.229 2.882.088 3.371c-.142.498.005 1.473.228 2.184-.362.257-1.474 1.026-1.824 1.026-.346 0-.878-.769-1.01-1.507.817-.435 1.138-.746.573-1.31-.59-.592-.715-2.583-.063-3.112.622-.504.801-1.504 1.403-1.789C-.436-.635-.308-.064 0 0" id="path46" fill="#f0f0f0" fill-opacity="1" fill-rule="nonzero" stroke="none"/></g><g id="g48" transform="translate(62.064 12.42)"><path d="M0 0c.467.092.187.466.514.793.326.326.699.979.747 1.213.005.025.022.043.045.058C.672 2.54.229 2.882.088 3.371c-.142.498.005 1.473.228 2.184-.362.257-1.474 1.026-1.824 1.026-.346 0-.878-.769-1.01-1.507.817-.435 1.138-.746.573-1.31-.59-.592-.715-2.583-.063-3.112.622-.504.801-1.504 1.403-1.789C-.436-.635-.308-.064 0 0z" id="path50" fill="none" stroke="#fff" stroke-width=".25" stroke-linecap="butt" stroke-linejoin="miter" stroke-miterlimit="10" stroke-dasharray="none" stroke-opacity="1"/></g><g id="g52" transform="translate(53.187 35.407)"><path d="M0 0c-.556.627-1.945.627-1.945.627s-.14-.627-.349-.974c-.175-.291-1.185-.287-1.832-.112-.184-.24-1.024-.428-1.141-.775-.14-.421-1.167-.188-.839-1.307.326-1.121-.513-.748-.84-.607-.327.139-1.775-.047-2.148-.42-.374-.374-.887-.28-1.215-.094-.326.185-.979.28-1.259-.186-.28-.467-.793.371-1.215.327-.419-.047-.233-.934-.233-1.122 0-.185.655-.746 1.074-.56.42.187.934-.046 1.307-.279.374-.235 1.074.186 1.307.42.234.234 1.541.234 1.681.234.14 0 .186-.748.42-.889.233-.139 1.121-.233 1.915-.279.792-.047 1.959-.42 2.333-.42.374 0 .98.654 1.819.654.841 0 1.307.513 1.448.466.003-.001.006-.005.008-.007.06.26.158.47.341.496.341.047.096.633.341.925.244.291-.196.876.244.828.437-.05.924-.098.924.534 0 .214.115.403.282.56-.482.675-.827 1.753-.827 1.753S.558-.625 0 0" id="path54" fill="#f0f0f0" fill-opacity="1" fill-rule="nonzero" stroke="none"/></g><g id="g56" transform="translate(53.187 35.407)"><path d="M0 0c-.556.627-1.945.627-1.945.627s-.14-.627-.349-.974c-.175-.291-1.185-.287-1.832-.112-.184-.24-1.024-.428-1.141-.775-.14-.421-1.167-.188-.839-1.307.326-1.121-.513-.748-.84-.607-.327.139-1.775-.047-2.148-.42-.374-.374-.887-.28-1.215-.094-.326.185-.979.28-1.259-.186-.28-.467-.793.371-1.215.327-.419-.047-.233-.934-.233-1.122 0-.185.655-.746 1.074-.56.42.187.934-.046 1.307-.279.374-.235 1.074.186 1.307.42.234.234 1.541.234 1.681.234.14 0 .186-.748.42-.889.233-.139 1.121-.233 1.915-.279.792-.047 1.959-.42 2.333-.42.374 0 .98.654 1.819.654.841 0 1.307.513 1.448.466.003-.001.006-.005.008-.007.06.26.158.47.341.496.341.047.096.633.341.925.244.291-.196.876.244.828.437-.05.924-.098.924.534 0 .214.115.403.282.56-.482.675-.827 1.753-.827 1.753S.558-.625 0 0z" id="path58" fill="none" stroke="#fff" stroke-width=".25" stroke-linecap="butt" stroke-linejoin="miter" stroke-miterlimit="10" stroke-dasharray="none" stroke-opacity="1"/></g><g id="g60" transform="translate(66.684 33.658)"><path d="M0 0a1.497 1.497 0 0 0-.493.301c-.586.131-1.152.303-1.324.474-.347.348-1.737.557-1.947.626C-3.971 1.473-5.293.15-5.711.15c-.417 0-2.225-.209-2.225-.694 0-.487-2.222-.559-2.849 0a1.98 1.98 0 0 0-.284.332c-.167-.157-.283-.346-.283-.559 0-.633-.486-.584-.923-.535-.44.048 0-.537-.245-.828-.244-.292 0-.878-.34-.925-.183-.026-.281-.236-.341-.496.146-.07.505-.787.505-.787l-.048-.043c.473-.283 1.439-.89 1.75-1.304.418-.556 1.599-.626 2.155-.488.557.138 2.921.904 2.921.904s.557-.208.903-.277c.082-.017.304-.054.592-.096.17.175.693.326 1.25.884.653.654 1.634 2.989 1.913 3.174.281.188 1.029.608 1.402.887C.514-.42.422-.141 0 0" id="path62" fill="#f0f0f0" fill-opacity="1" fill-rule="nonzero" stroke="none"/></g><g id="g64" transform="translate(66.684 33.658)"><path d="M0 0a1.497 1.497 0 0 0-.493.301c-.586.131-1.152.303-1.324.474-.347.348-1.737.557-1.947.626C-3.971 1.473-5.293.15-5.711.15c-.417 0-2.225-.209-2.225-.694 0-.487-2.222-.559-2.849 0a1.98 1.98 0 0 0-.284.332c-.167-.157-.283-.346-.283-.559 0-.633-.486-.584-.923-.535-.44.048 0-.537-.245-.828-.244-.292 0-.878-.34-.925-.183-.026-.281-.236-.341-.496.146-.07.505-.787.505-.787l-.048-.043c.473-.283 1.439-.89 1.75-1.304.418-.556 1.599-.626 2.155-.488.557.138 2.921.904 2.921.904s.557-.208.903-.277c.082-.017.304-.054.592-.096.17.175.693.326 1.25.884.653.654 1.634 2.989 1.913 3.174.281.188 1.029.608 1.402.887C.514-.42.422-.141 0 0z" id="path66" fill="none" stroke="#fff" stroke-width=".25" stroke-linecap="butt" stroke-linejoin="miter" stroke-miterlimit="10" stroke-dasharray="none" stroke-opacity="1"/></g><g id="g68" transform="translate(58.055 38.467)"><path d="M0 0c-.35.207-1.322.069-1.393.348-.067.277-.136.763-.554.763-.418 0-.974.278-1.182-.208-.209-.487-1.043.14-1.114.488-.068.347-.416.625-1.39.973-.386.138-.825.417-1.217.706a1.094 1.094 0 0 0-.111-.222c-.186-.282-.84.232-1.12-.048-.28-.28-1.214-.326-1.727-.794-.513-.467-1.588-.699-2.194-.84-.607-.141-.093-.7.14-1.121.234-.418.234-1.446.701-1.774.467-.326 2.007-1.306 2.193-1.633.032-.056.013-.109-.026-.158.647-.174 1.657-.178 1.832.113.209.346.349.973.349.973s1.389 0 1.945-.627c.557-.625 1.6-.207 1.6-.207s.058-.177.152-.424c.15.343.346.645.585.68.587.083 1.422.167 2.008 1.004.303.431.803.774 1.219 1.004C.415-.66.27-.163 0 0" id="path70" fill="#f0f0f0" fill-opacity="1" fill-rule="nonzero" stroke="none"/></g><g id="g72" transform="translate(58.055 38.467)"><path d="M0 0c-.35.207-1.322.069-1.393.348-.067.277-.136.763-.554.763-.418 0-.974.278-1.182-.208-.209-.487-1.043.14-1.114.488-.068.347-.416.625-1.39.973-.386.138-.825.417-1.217.706a1.094 1.094 0 0 0-.111-.222c-.186-.282-.84.232-1.12-.048-.28-.28-1.214-.326-1.727-.794-.513-.467-1.588-.699-2.194-.84-.607-.141-.093-.7.14-1.121.234-.418.234-1.446.701-1.774.467-.326 2.007-1.306 2.193-1.633.032-.056.013-.109-.026-.158.647-.174 1.657-.178 1.832.113.209.346.349.973.349.973s1.389 0 1.945-.627c.557-.625 1.6-.207 1.6-.207s.058-.177.152-.424c.15.343.346.645.585.68.587.083 1.422.167 2.008 1.004.303.431.803.774 1.219 1.004C.415-.66.27-.163 0 0z" id="path74" fill="none" stroke="#fff" stroke-width=".25" stroke-linecap="butt" stroke-linejoin="miter" stroke-miterlimit="10" stroke-dasharray="none" stroke-opacity="1"/></g><g id="g76" transform="translate(63.686 37.006)"><path d="M0 0c-.695-.068-1.044.348-1.599.14-.555-.208-1.461 0-1.807.208-.35.209-.765-.416-1.252-.139a1.005 1.005 0 0 0-.277.248c-.416-.23-.916-.573-1.219-1.004-.586-.837-1.421-.921-2.008-1.004-.238-.035-.435-.337-.585-.68.191-.494.542-1.29.96-1.661.627-.558 2.85-.487 2.85 0 0 .486 1.807.695 2.224.695.418 0 1.74 1.322 1.947 1.251.21-.07 1.6-.279 1.947-.626.173-.172.738-.344 1.324-.475-.246.217-.441.496-.441.727 0 .372.703 1.352.934 1.539.02.015.029.043.042.066-.535.08-1.123.19-1.233.299C1.599-.207.693.07 0 0" id="path78" fill="#f0f0f0" fill-opacity="1" fill-rule="nonzero" stroke="none"/></g><g id="g80" transform="translate(63.686 37.006)"><path d="M0 0c-.695-.068-1.044.348-1.599.14-.555-.208-1.461 0-1.807.208-.35.209-.765-.416-1.252-.139a1.005 1.005 0 0 0-.277.248c-.416-.23-.916-.573-1.219-1.004-.586-.837-1.421-.921-2.008-1.004-.238-.035-.435-.337-.585-.68.191-.494.542-1.29.96-1.661.627-.558 2.85-.487 2.85 0 0 .486 1.807.695 2.224.695.418 0 1.74 1.322 1.947 1.251.21-.07 1.6-.279 1.947-.626.173-.172.738-.344 1.324-.475-.246.217-.441.496-.441.727 0 .372.703 1.352.934 1.539.02.015.029.043.042.066-.535.08-1.123.19-1.233.299C1.599-.207.693.07 0 0z" id="path82" fill="none" stroke="#fff" stroke-width=".25" stroke-linecap="butt" stroke-linejoin="miter" stroke-miterlimit="10" stroke-dasharray="none" stroke-opacity="1"/></g><g id="g84" transform="translate(29.209 42.595)"><path d="M0 0c.38.38 1.046.19 1.427-.19.381-.381.951-.475 1.523-1.045.146-.149.304-.282.459-.4.054.402.064 1.2.241 1.614.186.434-.187.996.125.996.309 0 1.182 0 1.182.559 0 .56.249.373.436.686.188.31-.56.933-.686 1.121-.123.185.561.248 1.06.993.179.272.105.827-.062 1.427-.082-.221-.249-.381-.531-.212-.467.28-1.18.124-2.115-.063-.934-.186-1.213-1.089-.873-1.462.343-.375-.901-.56-.994-.063-.094.5-1.026.156-.966-.497.064-.653-1.027-.902-.964-1.711C-.675.942-1.734.196-2.419-.208a15.973 15.973 0 0 0-.329-.193c.344-.159.62-.264.75-.264C-1.426-.665-.38-.382 0 0" id="path86" fill="#f0f0f0" fill-opacity="1" fill-rule="nonzero" stroke="none"/></g><g id="g88" transform="translate(29.209 42.595)"><path d="M0 0c.38.38 1.046.19 1.427-.19.381-.381.951-.475 1.523-1.045.146-.149.304-.282.459-.4.054.402.064 1.2.241 1.614.186.434-.187.996.125.996.309 0 1.182 0 1.182.559 0 .56.249.373.436.686.188.31-.56.933-.686 1.121-.123.185.561.248 1.06.993.179.272.105.827-.062 1.427-.082-.221-.249-.381-.531-.212-.467.28-1.18.124-2.115-.063-.934-.186-1.213-1.089-.873-1.462.343-.375-.901-.56-.994-.063-.094.5-1.026.156-.966-.497.064-.653-1.027-.902-.964-1.711C-.675.942-1.734.196-2.419-.208a15.973 15.973 0 0 0-.329-.193c.344-.159.62-.264.75-.264C-1.426-.665-.38-.382 0 0z" id="path90" fill="none" stroke="#fff" stroke-width=".25" stroke-linecap="butt" stroke-linejoin="miter" stroke-miterlimit="10" stroke-dasharray="none" stroke-opacity="1"/></g><g id="g92" transform="translate(32.748 38.977)"><path d="M0 0c-.415-.232-.793-.73-.736-1.787.405.012.975-.035 1.388-.156C.552-.793.103-.437-.013-.199-.047-.135-.036-.067 0 0" id="path94" fill="#f0f0f0" fill-opacity="1" fill-rule="nonzero" stroke="none"/></g><g id="g96" transform="translate(32.748 38.977)"><path d="M0 0c-.415-.232-.793-.73-.736-1.787.405.012.975-.035 1.388-.156C.552-.793.103-.437-.013-.199-.047-.135-.036-.067 0 0z" id="path98" fill="none" stroke="#fff" stroke-width=".25" stroke-linecap="butt" stroke-linejoin="miter" stroke-miterlimit="10" stroke-dasharray="none" stroke-opacity="1"/></g><g id="g100" transform="translate(25.328 41.315)"><path d="M0 0c.046-.328.56-1.121.746-.795.187.327.654-.42 1.074-.653.42-.234 1.26-.514 1.306-.794.047-.279.187-.887.608-.7.42.187.933.84.933.467 0-.373.14-1.074.606-.98.468.094.608-.794 1.075-.699.085.014.201.025.337.029-.058 1.057.32 1.555.735 1.787.097.186.377.381.422.609.062.311-.622.934-.561 1.307.004.02.007.046.009.068-.155.118-.313.25-.459.399-.572.57-1.143.664-1.523 1.045-.381.381-1.047.57-1.427.19C3.5.898 2.455.615 1.883.615c-.131 0-.406.106-.75.264C.683.62.205.373-.272.277-.177.147-.031.216 0 0" id="path102" fill="#f0f0f0" fill-opacity="1" fill-rule="nonzero" stroke="none"/></g><g id="g104" transform="translate(25.328 41.315)"><path d="M0 0c.046-.328.56-1.121.746-.795.187.327.654-.42 1.074-.653.42-.234 1.26-.514 1.306-.794.047-.279.187-.887.608-.7.42.187.933.84.933.467 0-.373.14-1.074.606-.98.468.094.608-.794 1.075-.699.085.014.201.025.337.029-.058 1.057.32 1.555.735 1.787.097.186.377.381.422.609.062.311-.622.934-.561 1.307.004.02.007.046.009.068-.155.118-.313.25-.459.399-.572.57-1.143.664-1.523 1.045-.381.381-1.047.57-1.427.19C3.5.898 2.455.615 1.883.615c-.131 0-.406.106-.75.264C.683.62.205.373-.272.277-.177.147-.031.216 0 0z" id="path106" fill="none" stroke="#fff" stroke-width=".25" stroke-linecap="butt" stroke-linejoin="miter" stroke-miterlimit="10" stroke-dasharray="none" stroke-opacity="1"/></g><g id="g108" transform="translate(79.227 25.956)"><path d="M0 0c-.436.062-.997.247-.81.497l.056.071c-.583.472-.736 1.998-.364 2.371.474.476-.763 2.284-1.332 2.949-.268.313-.847 1.353-1.388 2.373-.494-.16-.932-.34-1.016-.483-.187-.309-.811-.623-1.183-.623-.373 0-.747.188-1.059-.123-.311-.31-.746-.435-.933-.25-.187.188-.81.373-1.246.373-.434 0-1.803.375-2.115.375-.184 0-.484-.025-.81-.07.07-.135.015-.296-.201-.459-.373-.279-1.121-.699-1.402-.887-.279-.185-1.26-2.52-1.913-3.174-.653-.653-1.261-.747-1.307-.979-.047-.233.747-.841.747-1.214 0-.375.185-.747.7-.747.513 0-.047-1.214.279-1.308.328-.092 2.334-.232 2.334-.7 0-.363.222-.669.125-.921.565-.093.979-.861 1.199-.806.249.062 1.93-.311 2.241-.249.31.062 1.743 0 2.241-.062.497-.062 1.056.187 1.492.622.436.437 1.994.498 2.491.437.496-.064 1.493-.188 1.681-.5.097-.162.683-.407 1.276-.606.071.309-.02.711-.002 1.106.032.653.405 1.648 1.058 1.711.653.062 1.182.062 1.09 1.15-.002.038-.002.066-.005.101-.331.283-.641.522-.742.522C.934.497.186-.026 0 0" id="path110" fill="#f0f0f0" fill-opacity="1" fill-rule="nonzero" stroke="none"/></g><g id="g112" transform="translate(79.227 25.956)"><path d="M0 0c-.436.062-.997.247-.81.497l.056.071c-.583.472-.736 1.998-.364 2.371.474.476-.763 2.284-1.332 2.949-.268.313-.847 1.353-1.388 2.373-.494-.16-.932-.34-1.016-.483-.187-.309-.811-.623-1.183-.623-.373 0-.747.188-1.059-.123-.311-.31-.746-.435-.933-.25-.187.188-.81.373-1.246.373-.434 0-1.803.375-2.115.375-.184 0-.484-.025-.81-.07.07-.135.015-.296-.201-.459-.373-.279-1.121-.699-1.402-.887-.279-.185-1.26-2.52-1.913-3.174-.653-.653-1.261-.747-1.307-.979-.047-.233.747-.841.747-1.214 0-.375.185-.747.7-.747.513 0-.047-1.214.279-1.308.328-.092 2.334-.232 2.334-.7 0-.363.222-.669.125-.921.565-.093.979-.861 1.199-.806.249.062 1.93-.311 2.241-.249.31.062 1.743 0 2.241-.062.497-.062 1.056.187 1.492.622.436.437 1.994.498 2.491.437.496-.064 1.493-.188 1.681-.5.097-.162.683-.407 1.276-.606.071.309-.02.711-.002 1.106.032.653.405 1.648 1.058 1.711.653.062 1.182.062 1.09 1.15-.002.038-.002.066-.005.101-.331.283-.641.522-.742.522C.934.497.186-.026 0 0z" id="path114" fill="none" stroke="#fff" stroke-width=".25" stroke-linecap="butt" stroke-linejoin="miter" stroke-miterlimit="10" stroke-dasharray="none" stroke-opacity="1"/></g><g id="g116" transform="translate(76.053 22.97)"><path d="M0 0c-.497.062-2.055 0-2.491-.437-.436-.435-.995-.684-1.492-.622-.498.062-1.931.124-2.242.062-.31-.062-1.991.311-2.24.249-.221-.055-.635.713-1.199.807a.423.423 0 0 0-.171-.2c-.42-.281-.468-1.025 0-1.447.466-.42 1.073-1.353.653-1.353-.419 0-.747-.56-.7-.84.047-.281-.14-.887 0-1.028.141-.139 1.12-1.074 1.166-1.353.042-.246.444-.374.413-.59.784.059 2.448.154 2.824-.033.499-.25 2.243-.373 2.243-.373.496 0 .932.186.808.497-.105.263.543.436 1.011.485-.081.287-.137.524-.016.574.233.093 1.588.28 2.147 0 .284-.143.604-.007.85.159-.074.261-.146.468-.29.495-.343.061-.87 1.493-.435 1.587.435.092.996 1.588 1.681 1.804.272.086.388.25.437.452-.593.199-1.179.443-1.276.605C1.493-.187.496-.063 0 0" id="path118" fill="#f0f0f0" fill-opacity="1" fill-rule="nonzero" stroke="none"/></g><g id="g120" transform="translate(76.053 22.97)"><path d="M0 0c-.497.062-2.055 0-2.491-.437-.436-.435-.995-.684-1.492-.622-.498.062-1.931.124-2.242.062-.31-.062-1.991.311-2.24.249-.221-.055-.635.713-1.199.807a.423.423 0 0 0-.171-.2c-.42-.281-.468-1.025 0-1.447.466-.42 1.073-1.353.653-1.353-.419 0-.747-.56-.7-.84.047-.281-.14-.887 0-1.028.141-.139 1.12-1.074 1.166-1.353.042-.246.444-.374.413-.59.784.059 2.448.154 2.824-.033.499-.25 2.243-.373 2.243-.373.496 0 .932.186.808.497-.105.263.543.436 1.011.485-.081.287-.137.524-.016.574.233.093 1.588.28 2.147 0 .284-.143.604-.007.85.159-.074.261-.146.468-.29.495-.343.061-.87 1.493-.435 1.587.435.092.996 1.588 1.681 1.804.272.086.388.25.437.452-.593.199-1.179.443-1.276.605C1.493-.187.496-.063 0 0z" id="path122" fill="none" stroke="#fff" stroke-width=".25" stroke-linecap="butt" stroke-linejoin="miter" stroke-miterlimit="10" stroke-dasharray="none" stroke-opacity="1"/></g><g id="g124" transform="translate(63.37 14.485)"><path d="M0 0a.26.26 0 0 0 .08.035l.018.006a.861.861 0 0 0 .117.017C.221.06.228.06.232.06c.182.015.425.004.675.012a.818.818 0 0 0 .051.001l.167.011c.021.004.043.004.065.006.073.01.144.021.211.039.56.139.701.746.98.606.28-.139 1.774.622 1.961.902a.2.2 0 0 1 .039.095c.03.216-.371.344-.413.59-.046.28-1.026 1.214-1.166 1.354-.03.029-.041.082-.047.144l-.003.018c-.004.066 0 .143.009.227-1.46-.211-3.626-.663-3.626-.663s-.053.039-.124.088c-.224-.711-.37-1.685-.229-2.183C-1.077.817-.634.476 0 0" id="path126" fill="#f0f0f0" fill-opacity="1" fill-rule="nonzero" stroke="none"/></g><g id="g128" transform="translate(63.37 14.485)"><path d="M0 0h0a.26.26 0 0 0 .08.035l.018.006a.861.861 0 0 0 .117.017C.221.06.228.06.232.06c.182.015.425.004.675.012a.818.818 0 0 0 .051.001l.167.011c.021.004.043.004.065.006.073.01.144.021.211.039.56.139.701.746.98.606.28-.139 1.774.622 1.961.902a.2.2 0 0 1 .039.095c.03.216-.371.344-.413.59-.046.28-1.026 1.214-1.166 1.354-.03.029-.041.082-.047.144l-.003.018c-.004.066 0 .143.009.227-1.46-.211-3.626-.663-3.626-.663s-.053.039-.124.088c-.224-.711-.37-1.685-.229-2.183C-1.077.817-.634.476 0 0z" id="path130" fill="none" stroke="#fff" stroke-width=".25" stroke-linecap="butt" stroke-linejoin="miter" stroke-miterlimit="10" stroke-dasharray="none" stroke-opacity="1"/></g><g id="g132" transform="translate(99.127 31.885)"><path d="M0 0c.326.045 1.307 1.12 1.634 1.12.327 0 1.726-.28 1.726-.048 0 .235.468 1.028.373 1.262-.092.232-.559.559-.465.793.092.232.746.232.746.514 0 .279-.513.42-.513.607 0 .186.653.513.606.886-.046.373-.606.421-1.212.747-.608.328-1.215.187-1.776.467-.558.279-1.726.093-1.726.279 0 .186-.747.794-.934 1.121-.187.326-.793.141-1.166-.093-.375-.234-.702-.327-1.074-.094-.373.234-.7.607-1.027.467-.328-.139-.934-.047-.794.421.14.467-.606 1.492-.933 1.632-.327.142-1.308-.092-1.54.374-.235.468-.654.841-.467 1.167.186.327-.047 1.215-.28 1.588-.235.373-1.401.326-1.727.186-.327-.139-1.075.14-1.401-.046-.327-.188-.513-.513-.981-.513-.259 0-.433.034-.575.24-.505-.227-1.352-.273-1.352-.273s-1.247-.995-1.247-1.368c0-.373-.06-.997-.374-.686-.31.312-1.617.313-1.927.125-.313-.187-.81.747-1.37.436s-1.307.435-1.37.125c-.062-.313-.871-.063-1.432.186-.559.249-1.556-.125-1.929.312-.373.435-2.801.435-3.609.435-.809 0-.996-.435-1.37-.809-.337-.339-.729-.269-1.126-.251.035-.315.096-.594.176-.713.187-.281 1.075-1.634.84-2.055-.232-.42-.653-.42-.933-.746-.281-.327-1.914-1.774-1.96-2.007-.047-.233.28-1.261.046-1.448-.232-.187-.934-1.167-.934-1.539 0-.374.514-.888.934-1.028.176-.06.291-.143.342-.242.327.045.626.071.811.071.311 0 1.681-.375 2.114-.375.437 0 1.06-.186 1.246-.373.188-.186.622-.061.934.25.311.31.685.123 1.059.123.372 0 .996.313 1.182.623.187.31 2.055.81 2.551.873.498.06 1.245-.934 1.681-.934.437 0 1.244-.312 1.494-1.121.25-.81.996-1.806 1.306-2.115.311-.313.497-1.121.497-1.37 0-.249-.683.062-1.431.249-.745.187-.809-.561-.809-.934s-1.057-1.68-1.244-1.93c-.187-.25.374-.435.81-.497.185-.026.933.497 1.181.497.102 0 .411-.239.742-.522-.071.974.131.919 1 1.579.904.685.997 1.961 1.805 2.117.811.156 1.151.53 2.335.344 1.183-.188-.591-.934.216-1.369.811-.438 3.301.123 3.426-.498.123-.623-2.865-1.246-2.802-1.558.062-.309 1.588-.622 2.116-.963.53-.344-.155-1.307.095-1.62.249-.31 1.057-.06 1.711.405.653.468 1.181.312 2.022.871.841.561 2.583.064 2.802.405.217.343-.499.684-2.118.559C-6.986-5.805-7.08-4.28-7.08-3.968c0 .31 1.681 1.587 2.644 1.679.966.094 1.744.375 2.677.809.376.175 1.037.353 1.712.482C-.148-.559-.279-.041 0 0" id="path134" fill="#f0f0f0" fill-opacity="1" fill-rule="nonzero" stroke="none"/></g><g id="g136" transform="translate(99.127 31.885)"><path d="M0 0c.326.045 1.307 1.12 1.634 1.12.327 0 1.726-.28 1.726-.048 0 .235.468 1.028.373 1.262-.092.232-.559.559-.465.793.092.232.746.232.746.514 0 .279-.513.42-.513.607 0 .186.653.513.606.886-.046.373-.606.421-1.212.747-.608.328-1.215.187-1.776.467-.558.279-1.726.093-1.726.279 0 .186-.747.794-.934 1.121-.187.326-.793.141-1.166-.093-.375-.234-.702-.327-1.074-.094-.373.234-.7.607-1.027.467-.328-.139-.934-.047-.794.421.14.467-.606 1.492-.933 1.632-.327.142-1.308-.092-1.54.374-.235.468-.654.841-.467 1.167.186.327-.047 1.215-.28 1.588-.235.373-1.401.326-1.727.186-.327-.139-1.075.14-1.401-.046-.327-.188-.513-.513-.981-.513-.259 0-.433.034-.575.24-.505-.227-1.352-.273-1.352-.273s-1.247-.995-1.247-1.368c0-.373-.06-.997-.374-.686-.31.312-1.617.313-1.927.125-.313-.187-.81.747-1.37.436s-1.307.435-1.37.125c-.062-.313-.871-.063-1.432.186-.559.249-1.556-.125-1.929.312-.373.435-2.801.435-3.609.435-.809 0-.996-.435-1.37-.809-.337-.339-.729-.269-1.126-.251.035-.315.096-.594.176-.713.187-.281 1.075-1.634.84-2.055-.232-.42-.653-.42-.933-.746-.281-.327-1.914-1.774-1.96-2.007-.047-.233.28-1.261.046-1.448-.232-.187-.934-1.167-.934-1.539 0-.374.514-.888.934-1.028.176-.06.291-.143.342-.242.327.045.626.071.811.071.311 0 1.681-.375 2.114-.375.437 0 1.06-.186 1.246-.373.188-.186.622-.061.934.25.311.31.685.123 1.059.123.372 0 .996.313 1.182.623.187.31 2.055.81 2.551.873.498.06 1.245-.934 1.681-.934.437 0 1.244-.312 1.494-1.121.25-.81.996-1.806 1.306-2.115.311-.313.497-1.121.497-1.37 0-.249-.683.062-1.431.249-.745.187-.809-.561-.809-.934s-1.057-1.68-1.244-1.93c-.187-.25.374-.435.81-.497.185-.026.933.497 1.181.497.102 0 .411-.239.742-.522-.071.974.131.919 1 1.579.904.685.997 1.961 1.805 2.117.811.156 1.151.53 2.335.344 1.183-.188-.591-.934.216-1.369.811-.438 3.301.123 3.426-.498.123-.623-2.865-1.246-2.802-1.558.062-.309 1.588-.622 2.116-.963.53-.344-.155-1.307.095-1.62.249-.31 1.057-.06 1.711.405.653.468 1.181.312 2.022.871.841.561 2.583.064 2.802.405.217.343-.499.684-2.118.559C-6.986-5.805-7.08-4.28-7.08-3.968c0 .31 1.681 1.587 2.644 1.679.966.094 1.744.375 2.677.809.376.175 1.037.353 1.712.482C-.148-.559-.279-.041 0 0z" id="path138" fill="none" stroke="#fff" stroke-width=".25" stroke-linecap="butt" stroke-linejoin="miter" stroke-miterlimit="10" stroke-dasharray="none" stroke-opacity="1"/></g><g id="g140" transform="translate(86.384 49.622)"><path d="M0 0c-.374.094-.607.933-1.215 1.167-.606.233-.466.98-.979 1.307-.513.328-.188.98-.235 1.495-.046.512.095 1.306-.185 1.446-.282.141-1.448.794-1.96.56-.515-.234-.888-.419-1.122 0-.233.421-.559.654-1.073.514-.514-.14-.841.093-1.121.327a.461.461 0 0 0-.106.154c-.207-.043-.48-.123-.654-.264-.313-.249-.374-.746-.811-.746-.435 0-.933.186-1.431-.188-.499-.373-.623-.81-.56-1.119.061-.311.125-.81-.249-.81s-.311-.437-.685-.561c-.373-.124-.996-.684-1.058-.994-.062-.312-.062-.997-.312-.997-.249 0-1.119-.124-1.369-.436-.248-.311-.558-.622-1.057-.498-.255.065-.94.095-1.543.11a.376.376 0 0 0-.014-.187c-.233-.654-.047-1.259.327-1.587.374-.326.514-1.633.094-1.821-.421-.185-1.214-.746-1.214-1.073 0-.326.84-.607.7-1.073-.079-.268-.082-.743-.037-1.155.397-.017.789-.088 1.126.251.374.374.561.81 1.37.81s3.236 0 3.609-.436c.373-.436 1.37-.062 1.929-.311.562-.249 1.37-.499 1.432-.187.063.311.81-.435 1.37-.125.56.312 1.057-.622 1.37-.435.31.187 1.617.186 1.928-.125.313-.311.373.312.373.685 0 .373 1.247 1.368 1.247 1.368s.847.046 1.352.274c-.112.161-.208.427-.312.879-.232 1.028-.606 1.634-.325 1.961.279.327 1.073-.42 1.492-.234.421.187 1.168.561 1.074.981C1.073-.653.373-.093 0 0" id="path142" fill="#f0f0f0" fill-opacity="1" fill-rule="nonzero" stroke="none"/></g><g id="g144" transform="translate(86.384 49.622)"><path d="M0 0c-.374.094-.607.933-1.215 1.167-.606.233-.466.98-.979 1.307-.513.328-.188.98-.235 1.495-.046.512.095 1.306-.185 1.446-.282.141-1.448.794-1.96.56-.515-.234-.888-.419-1.122 0-.233.421-.559.654-1.073.514-.514-.14-.841.093-1.121.327a.461.461 0 0 0-.106.154c-.207-.043-.48-.123-.654-.264-.313-.249-.374-.746-.811-.746-.435 0-.933.186-1.431-.188-.499-.373-.623-.81-.56-1.119.061-.311.125-.81-.249-.81s-.311-.437-.685-.561c-.373-.124-.996-.684-1.058-.994-.062-.312-.062-.997-.312-.997-.249 0-1.119-.124-1.369-.436-.248-.311-.558-.622-1.057-.498-.255.065-.94.095-1.543.11a.376.376 0 0 0-.014-.187c-.233-.654-.047-1.259.327-1.587.374-.326.514-1.633.094-1.821-.421-.185-1.214-.746-1.214-1.073 0-.326.84-.607.7-1.073-.079-.268-.082-.743-.037-1.155.397-.017.789-.088 1.126.251.374.374.561.81 1.37.81s3.236 0 3.609-.436c.373-.436 1.37-.062 1.929-.311.562-.249 1.37-.499 1.432-.187.063.311.81-.435 1.37-.125.56.312 1.057-.622 1.37-.435.31.187 1.617.186 1.928-.125.313-.311.373.312.373.685 0 .373 1.247 1.368 1.247 1.368s.847.046 1.352.274c-.112.161-.208.427-.312.879-.232 1.028-.606 1.634-.325 1.961.279.327 1.073-.42 1.492-.234.421.187 1.168.561 1.074.981C1.073-.653.373-.093 0 0z" id="path146" fill="none" stroke="#fff" stroke-width=".25" stroke-linecap="butt" stroke-linejoin="miter" stroke-miterlimit="10" stroke-dasharray="none" stroke-opacity="1"/></g><g id="g148" transform="translate(41.244 30.203)"><path d="M0 0c-.419-.186-1.073.375-1.073.561 0 .129-.086.594.002.884-.348.178-.845.42-1.216.531-.623.186-.933.186-1.43-.062-.318-.158-1.195-.114-1.786-.062-.053-.186-.136-.311-.285-.311-.42 0-.98-.42-1.073-.888-.093-.466-1.074-.839-1.355-1.679-.279-.841-.139-1.214.281-.701.42.514.934.327.934-.093 0-.42.56-.466.373-1.028-.003-.012-.003-.019-.005-.033.638.057 1.525.127 1.795.127.436 0 .871 1.369 1.057 1.494.186.124.686-.996 1.184-1.433.497-.436.56.375.56.748 0 .374.436.498.747.435.311-.061.996-.186.996.25 0 .434.374.248.621.248.25 0 .313.498.313.498l.407.379C.716.033.33.146 0 0" id="path150" fill="#f0f0f0" fill-opacity="1" fill-rule="nonzero" stroke="none"/></g><g id="g152" transform="translate(41.244 30.203)"><path d="M0 0c-.419-.186-1.073.375-1.073.561 0 .129-.086.594.002.884-.348.178-.845.42-1.216.531-.623.186-.933.186-1.43-.062-.318-.158-1.195-.114-1.786-.062-.053-.186-.136-.311-.285-.311-.42 0-.98-.42-1.073-.888-.093-.466-1.074-.839-1.355-1.679-.279-.841-.139-1.214.281-.701.42.514.934.327.934-.093 0-.42.56-.466.373-1.028-.003-.012-.003-.019-.005-.033.638.057 1.525.127 1.795.127.436 0 .871 1.369 1.057 1.494.186.124.686-.996 1.184-1.433.497-.436.56.375.56.748 0 .374.436.498.747.435.311-.061.996-.186.996.25 0 .434.374.248.621.248.25 0 .313.498.313.498l.407.379C.716.033.33.146 0 0z" id="path154" fill="none" stroke="#fff" stroke-width=".25" stroke-linecap="butt" stroke-linejoin="miter" stroke-miterlimit="10" stroke-dasharray="none" stroke-opacity="1"/></g><g id="g156" transform="translate(34.975 46.929)"><path d="M0 0c-.499-.745-1.182-.808-1.06-.993.126-.188.874-.811.686-1.121C-.561-2.427-.81-2.24-.81-2.8c0-.559-.872-.559-1.182-.559-.312 0 .061-.562-.125-.996-.187-.436-.187-1.307-.249-1.681-.061-.373.623-.996.56-1.307-.061-.312-.56-.56-.434-.808.115-.238.565-.594.665-1.745.215-.062.391-.143.469-.248a1.66 1.66 0 0 1 1.353-.652c.607 0 .841-.422 1.121-.374.28.046 1.028-.188.421-.701-.607-.513-.701-1.12-.84-1.727-.091-.393-.086-.938-.183-1.276.591-.052 1.468-.096 1.786.062.497.249.807.249 1.43.062.371-.11.868-.353 1.216-.53.038.125.104.22.231.236.421.045.934-.794 1.215-.326.28.466.933.371 1.259.185.327-.185.841-.28 1.215.094.373.373 1.82.56 2.147.42.327-.141 1.166-.514.84.608-.327 1.119.699.885.84 1.306.139.42 1.353.606 1.167.933-.187.327-1.727 1.307-2.194 1.634-.466.327-.466 1.355-.701 1.773-.232.421-.747.98-.139 1.121.606.141 1.68.373 2.194.84.513.468 1.446.514 1.727.794.28.28.933-.234 1.12.048.187.279.326.84.048 1.166-.281.327-.468.886-.514 1.679-.047.793-.28.748-.28 1.122 0 .373-.14.839-.467 1.027-.326.185-.467.326-.141.839.327.514.187 1.821.046 2.194a.52.52 0 0 0-.009.256c-.084.039-.15.121-.177.258-.093.498-.434.684-1.244.684-.809 0 .497.81.186 1.214-.31.404-1.12-.746-1.865-.497-.748.247-1.712-.873-2.366-1.37-.654-.499-1.587.093-1.089.81.497.714 0 .653-.748.372-.747-.28-1.649.062-1.556.748a.729.729 0 0 1-.123.484c-.364-.051-.645-.062-.778-.018-.335.111-1.094.171-1.922.188.248-.362.516-.717.364-.997-.279-.53.158-1.028.56-1.805.405-.779-.87-.343-.901-.841-.032-.498-1.182.032-1.557.219-.372.186-1.618.062-1.586-.25a1.054 1.054 0 0 0-.062-.441C.105.827.18.272 0 0" id="path158" fill="#f0f0f0" fill-opacity="1" fill-rule="nonzero" stroke="none"/></g><g id="g160" transform="translate(34.975 46.929)"><path d="M0 0c-.499-.745-1.182-.808-1.06-.993.126-.188.874-.811.686-1.121C-.561-2.427-.81-2.24-.81-2.8c0-.559-.872-.559-1.182-.559-.312 0 .061-.562-.125-.996-.187-.436-.187-1.307-.249-1.681-.061-.373.623-.996.56-1.307-.061-.312-.56-.56-.434-.808.115-.238.565-.594.665-1.745.215-.062.391-.143.469-.248a1.66 1.66 0 0 1 1.353-.652c.607 0 .841-.422 1.121-.374.28.046 1.028-.188.421-.701-.607-.513-.701-1.12-.84-1.727-.091-.393-.086-.938-.183-1.276.591-.052 1.468-.096 1.786.062.497.249.807.249 1.43.062.371-.11.868-.353 1.216-.53.038.125.104.22.231.236.421.045.934-.794 1.215-.326.28.466.933.371 1.259.185.327-.185.841-.28 1.215.094.373.373 1.82.56 2.147.42.327-.141 1.166-.514.84.608-.327 1.119.699.885.84 1.306.139.42 1.353.606 1.167.933-.187.327-1.727 1.307-2.194 1.634-.466.327-.466 1.355-.701 1.773-.232.421-.747.98-.139 1.121.606.141 1.68.373 2.194.84.513.468 1.446.514 1.727.794.28.28.933-.234 1.12.048.187.279.326.84.048 1.166-.281.327-.468.886-.514 1.679-.047.793-.28.748-.28 1.122 0 .373-.14.839-.467 1.027-.326.185-.467.326-.141.839.327.514.187 1.821.046 2.194a.52.52 0 0 0-.009.256c-.084.039-.15.121-.177.258-.093.498-.434.684-1.244.684-.809 0 .497.81.186 1.214-.31.404-1.12-.746-1.865-.497-.748.247-1.712-.873-2.366-1.37-.654-.499-1.587.093-1.089.81.497.714 0 .653-.748.372-.747-.28-1.649.062-1.556.748a.729.729 0 0 1-.123.484c-.364-.051-.645-.062-.778-.018-.335.111-1.094.171-1.922.188.248-.362.516-.717.364-.997-.279-.53.158-1.028.56-1.805.405-.779-.87-.343-.901-.841-.032-.498-1.182.032-1.557.219-.372.186-1.618.062-1.586-.25a1.054 1.054 0 0 0-.062-.441C.105.827.18.272 0 0z" id="path162" fill="none" stroke="#fff" stroke-width=".25" stroke-linecap="butt" stroke-linejoin="miter" stroke-miterlimit="10" stroke-dasharray="none" stroke-opacity="1"/></g><g id="g164" transform="translate(39.674 19.918)"><path d="M0 0c-.343.031-.437-.59-1.307-1.121-.871-.529.007-2.918.87-2.8C.466-3.797.342-.031 0 0m-3.331 15.841c-.28-.048-.513.374-1.121.374a1.66 1.66 0 0 0-1.353.652c-.28.375-1.726.467-2.193.375-.467-.095-.607.793-1.075.699-.466-.093-.606.608-.606.981s-.513-.28-.933-.468c-.421-.186-.561.421-.608.7-.047.281-.886.561-1.306.794-.42.234-.887.981-1.074.654-.186-.327-.7.466-.746.794-.031.216-.177.148-.272.278a1.883 1.883 0 0 0-.476-.045c-.747.031-1.4-.561-1.275-1.807.124-1.243-.903-1.368-2.179-1.461-1.276-.093-.84-1.09-1.369-1.494-.529-.406-2.396.217-2.645.901-.25.684-1.929 0-1.214-.807.717-.811.684-1.931.28-2.241-.404-.312-1.277.497-1.837.093-.56-.405-.591.374-1.274.621-.685.251-.966-.309-2.054-.217-1.091.095-1.713-.528-1.308-.995.404-.466-.062-.902.249-1.308.312-.404 1.743-.341 2.8-.902 1.059-.559 1.307-.092 1.837-.498.529-.405.654-.155.685-.934.031-.777.622-1.523 1.649-1.805 1.027-.28.249-.964.561-1.649.31-.685-.467-1.68-.312-2.521.156-.839-.498-3.546-.996-3.795-.031-.017-.083-.017-.124-.025.467-.232.957-.435 1.197-.594.455-.304 1.437-.605 2.045-.984.605-.38 1.665-.305 1.665.152 0 .453.605.149.984-.228.379-.379 1.818-.455 2.5-.606.574-.127 1.412-.046 2.162-.062-.03.17-.068.347-.127.54-.373 1.215.715 1.931 1.741 2.087 1.027.154 3.268-.467 3.861-.84.59-.374 1.4-.281 2.427.809.517.55.942.75 1.318.858.027.244.154.493.236.712.141.375-.513.281-.979.328-.468.047-.794.514-.468 1.027.328.514-.279.561-.606 1.074-.327.512.14.373.419.512.28.141.655.701.42.84-.233.141-.42.467-.233 1.027.187.562-.373.608-.373 1.028 0 .42-.513.607-.933.094-.421-.514-.561-.141-.282.7.282.841 1.262 1.214 1.355 1.679.093.468.653.888 1.074.888.42 0 .326.981.467 1.587.139.607.233 1.214.84 1.727.607.512-.141.747-.421.701" id="path166" fill="#f0f0f0" fill-opacity="1" fill-rule="nonzero" stroke="none"/></g><g id="g168" transform="translate(39.674 19.918)"><path d="M0 0c-.343.031-.437-.59-1.307-1.121-.871-.529.007-2.918.87-2.8C.466-3.797.342-.031 0 0zm-3.331 15.841c-.28-.048-.513.374-1.121.374a1.66 1.66 0 0 0-1.353.652c-.28.375-1.726.467-2.193.375-.467-.095-.607.793-1.075.699-.466-.093-.606.608-.606.981s-.513-.28-.933-.468c-.421-.186-.561.421-.608.7-.047.281-.886.561-1.306.794-.42.234-.887.981-1.074.654-.186-.327-.7.466-.746.794-.031.216-.177.148-.272.278a1.883 1.883 0 0 0-.476-.045c-.747.031-1.4-.561-1.275-1.807.124-1.243-.903-1.368-2.179-1.461-1.276-.093-.84-1.09-1.369-1.494-.529-.406-2.396.217-2.645.901-.25.684-1.929 0-1.214-.807.717-.811.684-1.931.28-2.241-.404-.312-1.277.497-1.837.093-.56-.405-.591.374-1.274.621-.685.251-.966-.309-2.054-.217-1.091.095-1.713-.528-1.308-.995.404-.466-.062-.902.249-1.308.312-.404 1.743-.341 2.8-.902 1.059-.559 1.307-.092 1.837-.498.529-.405.654-.155.685-.934.031-.777.622-1.523 1.649-1.805 1.027-.28.249-.964.561-1.649.31-.685-.467-1.68-.312-2.521.156-.839-.498-3.546-.996-3.795-.031-.017-.083-.017-.124-.025.467-.232.957-.435 1.197-.594.455-.304 1.437-.605 2.045-.984.605-.38 1.665-.305 1.665.152 0 .453.605.149.984-.228.379-.379 1.818-.455 2.5-.606.574-.127 1.412-.046 2.162-.062-.03.17-.068.347-.127.54-.373 1.215.715 1.931 1.741 2.087 1.027.154 3.268-.467 3.861-.84.59-.374 1.4-.281 2.427.809.517.55.942.75 1.318.858.027.244.154.493.236.712.141.375-.513.281-.979.328-.468.047-.794.514-.468 1.027.328.514-.279.561-.606 1.074-.327.512.14.373.419.512.28.141.655.701.42.84-.233.141-.42.467-.233 1.027.187.562-.373.608-.373 1.028 0 .42-.513.607-.933.094-.421-.514-.561-.141-.282.7.282.841 1.262 1.214 1.355 1.679.093.468.653.888 1.074.888.42 0 .326.981.467 1.587.139.607.233 1.214.84 1.727.607.512-.141.747-.421.701z" id="path170" fill="none" stroke="#fff" stroke-width=".25" stroke-linecap="butt" stroke-linejoin="miter" stroke-miterlimit="10" stroke-dasharray="none" stroke-opacity="1"/></g><g id="g172" transform="translate(26.79 11.579)"><path d="M0 0c-.155 1.059-2.294-.316-1.836-.623C-.902-1.245.155-1.059 0 0m-.183 6.803c-.75.015-1.588-.065-2.162.062-.681.151-2.121.227-2.499.606-.38.377-.985.68-.985.228 0-.457-1.06-.532-1.665-.152-.608.379-1.59.68-2.045.984-.239.158-.73.362-1.196.594-.632-.123-2.446.544-3.642.397-1.276-.155-5.353.188-6.94.062-1.587-.123-1.681.653-2.552.653s-.497-1.055-1.742-1.088c-1.245-.032-1.368-.809-.468-1.526.515-.408.453-1.268.38-2.057.258.033.449.104.56.239.378.453.757.38.757-.076s.833-.304 1.288-.304c.454 0 .302-.38.833 0 .529.38 1.287.227 1.287-.228 0-.453 1.135-.225.53-.832-.606-.605-1.364-.758-1.364-1.211 0-.455.682-1.437.151-1.968-.528-.531.153-1.44-.376-1.44-.531 0-1.137-.226-.531-.832.606-.607 1.06-1.137.606-1.137-.455 0-.758-.909-.531-1.136.228-.227 1.288-.909.456-1.06-.834-.151-.834-.832-.834-1.287 0-.169.135-.425.305-.685.387.069.769.08 1.12-.084.871-.403 1.376-2.572 2.552-2.425.499.062.249.435.499.685.249.248.715.061 1.214.061.496 0 .747.717 1.928.747 1.183.03 1.93.126 2.676.094.748-.031 1.339.218 1.525.747.186.529.81.995 1.65 1.12.84.124.716.997.777 1.493.063.498 1.464 1.246 1.556 1.619.094.374-.81 1.805.031 3.081.84 1.275 1.744 1.337 1.744 2.054 0 .656.87.901 1.929 1.028 1.059.122 1.401.839 2.304 1.212.756.314 1.026.873.874 1.762" id="path174" fill="#f0f0f0" fill-opacity="1" fill-rule="nonzero" stroke="none"/></g><g id="g176" transform="translate(26.79 11.579)"><path d="M0 0c-.155 1.059-2.294-.316-1.836-.623C-.902-1.245.155-1.059 0 0zm-.183 6.803c-.75.015-1.588-.065-2.162.062-.681.151-2.121.227-2.499.606-.38.377-.985.68-.985.228 0-.457-1.06-.532-1.665-.152-.608.379-1.59.68-2.045.984-.239.158-.73.362-1.196.594-.632-.123-2.446.544-3.642.397-1.276-.155-5.353.188-6.94.062-1.587-.123-1.681.653-2.552.653s-.497-1.055-1.742-1.088c-1.245-.032-1.368-.809-.468-1.526.515-.408.453-1.268.38-2.057.258.033.449.104.56.239.378.453.757.38.757-.076s.833-.304 1.288-.304c.454 0 .302-.38.833 0 .529.38 1.287.227 1.287-.228 0-.453 1.135-.225.53-.832-.606-.605-1.364-.758-1.364-1.211 0-.455.682-1.437.151-1.968-.528-.531.153-1.44-.376-1.44-.531 0-1.137-.226-.531-.832.606-.607 1.06-1.137.606-1.137-.455 0-.758-.909-.531-1.136.228-.227 1.288-.909.456-1.06-.834-.151-.834-.832-.834-1.287 0-.169.135-.425.305-.685.387.069.769.08 1.12-.084.871-.403 1.376-2.572 2.552-2.425.499.062.249.435.499.685.249.248.715.061 1.214.061.496 0 .747.717 1.928.747 1.183.03 1.93.126 2.676.094.748-.031 1.339.218 1.525.747.186.529.81.995 1.65 1.12.84.124.716.997.777 1.493.063.498 1.464 1.246 1.556 1.619.094.374-.81 1.805.031 3.081.84 1.275 1.744 1.337 1.744 2.054 0 .656.87.901 1.929 1.028 1.059.122 1.401.839 2.304 1.212.756.314 1.026.873.874 1.762z" id="path178" fill="none" stroke="#fff" stroke-width=".25" stroke-linecap="butt" stroke-linejoin="miter" stroke-miterlimit="10" stroke-dasharray="none" stroke-opacity="1"/></g><g id="g180" transform="translate(46.92 26.686)"><path d="M0 0c.502.202 1.067.283 1.344.172.243-.098.322-.354.366-.627.43.062 1.217.184 1.483.286.375.14 1.214-.327 1.307-.048.094.281.374.934.747.934.374 0 .14.98.514 1.028.373.046 1.306.886 1.306.886s-.373.746-.512.794c-.141.047-.608-.466-1.449-.466-.838 0-1.445-.654-1.818-.654-.374 0-1.541.373-2.334.42-.28.015-.572.039-.844.067C.033 2.086-.052.998 0 0" id="path182" fill="#f0f0f0" fill-opacity="1" fill-rule="nonzero" stroke="none"/></g><g id="g184" transform="translate(46.92 26.686)"><path d="M0 0c.502.202 1.067.283 1.344.172.243-.098.322-.354.366-.627.43.062 1.217.184 1.483.286.375.14 1.214-.327 1.307-.048.094.281.374.934.747.934.374 0 .14.98.514 1.028.373.046 1.306.886 1.306.886s-.373.746-.512.794c-.141.047-.608-.466-1.449-.466-.838 0-1.445-.654-1.818-.654-.374 0-1.541.373-2.334.42-.28.015-.572.039-.844.067C.033 2.086-.052.998 0 0z" id="path186" fill="none" stroke="#fff" stroke-width=".25" stroke-linecap="butt" stroke-linejoin="miter" stroke-miterlimit="10" stroke-dasharray="none" stroke-opacity="1"/></g><g id="g188" transform="translate(72.878 1.09)"><path d="M0 0c-.499.279-2.739-.187-3.329.373-.592.561-1.799-.441-1.277-.528.746-.124 1.867-.779 3.081-.809 1.213-.032 2.862.56 2.833.871C1.275.219.498-.279 0 0m1.758 15.703c-.468-.049-1.116-.223-1.011-.485.124-.311-.312-.497-.809-.497 0 0-1.744.123-2.242.373-.377.187-2.04.092-2.824.033a.204.204 0 0 0-.039-.096c-.187-.279-1.681-1.041-1.961-.901-.279.14-.42-.468-.979-.607-.561-.14-1.401.047-1.447-.187-.048-.233-.421-.887-.747-1.213-.327-.327-.047-.701-.513-.793-.308-.064-.436-.635-.606-1.137.03-.015.059-.037.092-.047.683-.217 1.213-1.028 1.12-1.804-.093-.78.996-1.061 1.494-.498.497.558 1.899-.313 1.899-.686 0-.373-1.432.404-2.243-.187-.807-.59.623-1.151.438-1.774-.189-.623.373-1.492 1.089-1.463.717.031 1.524-1.151 1.96-.932.436.217-.529 1.866-.373 2.115.156.249 1.026-.436 1.462.063.436.498-.311.871-.964.84-.654-.031-.032.871.747.405.777-.466 1.151.124 1.523.187.373.063.467 1.4-.684 1.711-1.15.311-.995-.842-1.744-.06-.746.775.686.465.686 1.119 0 .653-1.151 1.587-1.712 2.365-.559.776.779 1.15 1.089.59.312-.56 1.151-.467 1.681-.248.531.216-.56 1.214.404 1.587.966.374.966-.281 1.277-.406.311-.123.591.78 1.586.78.519 0 .978-.344 1.422-.676.271.298.492.47.492.722 0 .327.608.467.608.981 0 .246-.097.557-.171.826" id="path190" fill="#f0f0f0" fill-opacity="1" fill-rule="nonzero" stroke="none"/></g><g id="g192" transform="translate(72.878 1.09)"><path d="M0 0c-.499.279-2.739-.187-3.329.373-.592.561-1.799-.441-1.277-.528.746-.124 1.867-.779 3.081-.809 1.213-.032 2.862.56 2.833.871C1.275.219.498-.279 0 0zm1.758 15.703c-.468-.049-1.116-.223-1.011-.485.124-.311-.312-.497-.809-.497 0 0-1.744.123-2.242.373-.377.187-2.04.092-2.824.033a.204.204 0 0 0-.039-.096c-.187-.279-1.681-1.041-1.961-.901-.279.14-.42-.468-.979-.607-.561-.14-1.401.047-1.447-.187-.048-.233-.421-.887-.747-1.213-.327-.327-.047-.701-.513-.793-.308-.064-.436-.635-.606-1.137.03-.015.059-.037.092-.047.683-.217 1.213-1.028 1.12-1.804-.093-.78.996-1.061 1.494-.498.497.558 1.899-.313 1.899-.686 0-.373-1.432.404-2.243-.187-.807-.59.623-1.151.438-1.774-.189-.623.373-1.492 1.089-1.463.717.031 1.524-1.151 1.96-.932.436.217-.529 1.866-.373 2.115.156.249 1.026-.436 1.462.063.436.498-.311.871-.964.84-.654-.031-.032.871.747.405.777-.466 1.151.124 1.523.187.373.063.467 1.4-.684 1.711-1.15.311-.995-.842-1.744-.06-.746.775.686.465.686 1.119 0 .653-1.151 1.587-1.712 2.365-.559.776.779 1.15 1.089.59.312-.56 1.151-.467 1.681-.248.531.216-.56 1.214.404 1.587.966.374.966-.281 1.277-.406.311-.123.591.78 1.586.78.519 0 .978-.344 1.422-.676.271.298.492.47.492.722 0 .327.608.467.608.981 0 .246-.097.557-.171.826z" id="path194" fill="none" stroke="#fff" stroke-width=".25" stroke-linecap="butt" stroke-linejoin="miter" stroke-miterlimit="10" stroke-dasharray="none" stroke-opacity="1"/></g><g id="g196" transform="translate(53.74 15.748)"><path d="M0 0c-.809.496-.28 1.307-1.556 1.246-1.276-.064-2.8 1.524-3.267 3.36C-5.29 6.44-7.28 6.535-7.779 7.625c-.498 1.09.467 1.213.032 2.115-.243.502.294.947.928 1.198-.052.998.033 2.085.11 2.791-.494.051-.919.123-1.07.212-.235.141-.281.889-.421.889-.14 0-1.446 0-1.681-.234-.233-.234-.933-.655-1.307-.42-.08.049-.169.099-.26.144l-.407-.379s-.063-.498-.313-.498c-.247 0-.622.186-.622-.248 0-.436-.685-.311-.995-.25-.311.063-.747-.061-.747-.435 0-.373-.063-1.184-.56-.748-.498.437-.998 1.557-1.184 1.433-.186-.125-.621-1.494-1.057-1.494-.27 0-1.157-.07-1.795-.127-.168-.536.011-.855.238-.994.234-.139-.14-.699-.42-.84-.279-.139-.747 0-.419-.512.327-.513.933-.56.606-1.074-.326-.513 0-.98.467-1.027.467-.047 1.121.047.98-.328-.082-.219-.209-.468-.237-.712.368.106.692.124 1.016.294.654.34.374.932 1.461 1.244 1.09.311 2.522-.592 2.957-1.244.436-.654.561-.717.654-1.247.094-.528.498-1.587 1.991-2.551C-8.34 1.617-7.747.529-6.971.125c.779-.406 1.557-.312 2.024-.872.467-.56 1.089-.871 1.836-1.214.746-.344.777-1.15 1.493-1.245.715-.093.249-.716.684-1.244.435-.529.561-1.65.094-2.273-.467-.623-.219-1.679.094-1.679.31 0 .964 1.12 1.058 1.742.091.623.715.59 1.212 1.245.498.653-.746.81-.962 1.649-.219.841.933 1.588 2.021.904 1.088-.685 1.525-1.153 1.586-.095C4.232-1.899.809-.498 0 0m-15.249-.996c-.683-.592-1.248.103-1.523-.373-.344-.592 1.057-1.493.776-2.707-.28-1.213.156-2.738.871-2.024.716.715 1.06.373 1.463.904.404.527.063 2.488.343 3.422.28.933-1.245 1.37-1.93.778m12.044-7.065c-1.277-.279-1.805-.373-2.551 0-.748.374-1.957-.339-1.774-.838.124-.344.623-.779 2.177-1.185 1.557-.403 1.744-1.461 2.397-1.493.653-.03.716.593.56 1.432-.156.84.778 1.805.871 1.961.092.155-.406.404-1.68.123" id="path198" fill="#f0f0f0" fill-opacity="1" fill-rule="nonzero" stroke="none"/></g><g id="g200" transform="translate(53.74 15.748)"><path d="M0 0c-.809.496-.28 1.307-1.556 1.246-1.276-.064-2.8 1.524-3.267 3.36C-5.29 6.44-7.28 6.535-7.779 7.625c-.498 1.09.467 1.213.032 2.115-.243.502.294.947.928 1.198-.052.998.033 2.085.11 2.791-.494.051-.919.123-1.07.212-.235.141-.281.889-.421.889-.14 0-1.446 0-1.681-.234-.233-.234-.933-.655-1.307-.42-.08.049-.169.099-.26.144l-.407-.379s-.063-.498-.313-.498c-.247 0-.622.186-.622-.248 0-.436-.685-.311-.995-.25-.311.063-.747-.061-.747-.435 0-.373-.063-1.184-.56-.748-.498.437-.998 1.557-1.184 1.433-.186-.125-.621-1.494-1.057-1.494-.27 0-1.157-.07-1.795-.127-.168-.536.011-.855.238-.994.234-.139-.14-.699-.42-.84-.279-.139-.747 0-.419-.512.327-.513.933-.56.606-1.074-.326-.513 0-.98.467-1.027.467-.047 1.121.047.98-.328-.082-.219-.209-.468-.237-.712.368.106.692.124 1.016.294.654.34.374.932 1.461 1.244 1.09.311 2.522-.592 2.957-1.244.436-.654.561-.717.654-1.247.094-.528.498-1.587 1.991-2.551C-8.34 1.617-7.747.529-6.971.125c.779-.406 1.557-.312 2.024-.872.467-.56 1.089-.871 1.836-1.214.746-.344.777-1.15 1.493-1.245.715-.093.249-.716.684-1.244.435-.529.561-1.65.094-2.273-.467-.623-.219-1.679.094-1.679.31 0 .964 1.12 1.058 1.742.091.623.715.59 1.212 1.245.498.653-.746.81-.962 1.649-.219.841.933 1.588 2.021.904 1.088-.685 1.525-1.153 1.586-.095C4.232-1.899.809-.498 0 0zm-15.249-.996c-.683-.592-1.248.103-1.523-.373-.344-.592 1.057-1.493.776-2.707-.28-1.213.156-2.738.871-2.024.716.715 1.06.373 1.463.904.404.527.063 2.488.343 3.422.28.933-1.245 1.37-1.93.778zm12.044-7.065c-1.277-.279-1.805-.373-2.551 0-.748.374-1.957-.339-1.774-.838.124-.344.623-.779 2.177-1.185 1.557-.403 1.744-1.461 2.397-1.493.653-.03.716.593.56 1.432-.156.84.778 1.805.871 1.961.092.155-.406.404-1.68.123z" id="path202" fill="none" stroke="#fff" stroke-width=".25" stroke-linecap="butt" stroke-linejoin="miter" stroke-miterlimit="10" stroke-dasharray="none" stroke-opacity="1"/></g><g id="g204" transform="translate(58.84 20.871)"><path d="M0 0c-.432-.582-.854-1.32-.806-1.562.022-.106-.014-.345-.087-.652.555-.448 1.092-.899 1.488-1.104l.112-.059c.123.691.6 1.405.945 1.488C1.169-1.296.458-.459 0 0" id="path206" fill="#f0f0f0" fill-opacity="1" fill-rule="nonzero" stroke="none"/></g><g id="g208" transform="translate(58.84 20.871)"><path d="M0 0c-.432-.582-.854-1.32-.806-1.562.022-.106-.014-.345-.087-.652.555-.448 1.092-.899 1.488-1.104l.112-.059c.123.691.6 1.405.945 1.488C1.169-1.296.458-.459 0 0z" id="path210" fill="none" stroke="#fff" stroke-width=".25" stroke-linecap="butt" stroke-linejoin="miter" stroke-miterlimit="10" stroke-dasharray="none" stroke-opacity="1"/></g><g id="g212" transform="translate(66.218 21.381)"><path d="M0 0c-.468.422-.42 1.166 0 1.447.42.282.046.655.046 1.12 0 .468-2.006.608-2.334.701-.326.093.234 1.307-.279 1.307-.515 0-.701.372-.701.747 0 .373-.794.981-.747 1.214.007.032.03.064.058.095-.288.043-.51.079-.592.097-.347.068-.903.276-.903.276s-1.295-.418-2.194-.692c.061-.548.205-1.144.549-1.273.669-.251.419-.919.669-1.506.251-.586.167-3.262-.167-3.262-.141 0-.466-.347-.784-.781.458-.459 1.169-1.296 1.652-1.888.022.005.044.018.065.018.417 0 1.948-1.114 1.948-1.114s2.166.451 3.626.663c.022.224.067.48.041.638-.047.28.281.839.7.839C1.073-1.354.466-.42 0 0" id="path214" fill="#f0f0f0" fill-opacity="1" fill-rule="nonzero" stroke="none"/></g><g id="g216" transform="translate(66.218 21.381)"><path d="M0 0c-.468.422-.42 1.166 0 1.447.42.282.046.655.046 1.12 0 .468-2.006.608-2.334.701-.326.093.234 1.307-.279 1.307-.515 0-.701.372-.701.747 0 .373-.794.981-.747 1.214.007.032.03.064.058.095-.288.043-.51.079-.592.097-.347.068-.903.276-.903.276s-1.295-.418-2.194-.692c.061-.548.205-1.144.549-1.273.669-.251.419-.919.669-1.506.251-.586.167-3.262-.167-3.262-.141 0-.466-.347-.784-.781.458-.459 1.169-1.296 1.652-1.888.022.005.044.018.065.018.417 0 1.948-1.114 1.948-1.114s2.166.451 3.626.663c.022.224.067.48.041.638-.047.28.281.839.7.839C1.073-1.354.466-.42 0 0z" id="path218" fill="none" stroke="#fff" stroke-width=".25" stroke-linecap="butt" stroke-linejoin="miter" stroke-miterlimit="10" stroke-dasharray="none" stroke-opacity="1"/></g></g></g></g></svg>