<?xml version="1.0" encoding="UTF-8" standalone="no"?>
<!-- Created with Inkscape (http://www.inkscape.org/) -->

<svg
   xmlns:dc="http://purl.org/dc/elements/1.1/"
   xmlns:cc="http://creativecommons.org/ns#"
   xmlns:rdf="http://www.w3.org/1999/02/22-rdf-syntax-ns#"
   xmlns:svg="http://www.w3.org/2000/svg"
   xmlns="http://www.w3.org/2000/svg"
   xmlns:sodipodi="http://sodipodi.sourceforge.net/DTD/sodipodi-0.dtd"
   xmlns:inkscape="http://www.inkscape.org/namespaces/inkscape"
   id="svg2"
   version="1.1"
   inkscape:version="0.91 r13725"
   xml:space="preserve"
   width="129.2025"
   height="70.918251"
   viewBox="0 0 129.2025 70.918251"
   sodipodi:docname="map.svg"><metadata
     id="metadata8"><rdf:RDF><cc:Work
         rdf:about=""><dc:format>image/svg+xml</dc:format><dc:type
           rdf:resource="http://purl.org/dc/dcmitype/StillImage" /><dc:title></dc:title></cc:Work></rdf:RDF></metadata><defs
     id="defs6"><clipPath
       clipPathUnits="userSpaceOnUse"
       id="clipPath16"><path
         d="m 0,56.735 103.362,0 L 103.362,0 0,0 0,56.735 Z"
         id="path18"
         inkscape:connector-curvature="0" /></clipPath></defs><sodipodi:namedview
     pagecolor="#ffffff"
     bordercolor="#666666"
     borderopacity="1"
     objecttolerance="10"
     gridtolerance="10"
     guidetolerance="10"
     inkscape:pageopacity="0"
     inkscape:pageshadow="2"
     inkscape:window-width="1720"
     inkscape:window-height="1137"
     id="namedview4"
     showgrid="false"
     inkscape:zoom="8"
     inkscape:cx="62.849802"
     inkscape:cy="58.494626"
     inkscape:window-x="0"
     inkscape:window-y="0"
     inkscape:window-maximized="0"
     inkscape:current-layer="g10" /><g
     id="g10"
     inkscape:groupmode="layer"
     inkscape:label="Vector Smart Object"
     transform="matrix(1.25,0,0,-1.25,0,70.91825)"><g
       id="g12"><g
         id="g14"
         clip-path="url(#clipPath16)"><g
           id="g20"
           transform="translate(49.7864,49.3421)"><path
             d="m 0,0 c 0.141,-0.373 0.281,-1.68 -0.046,-2.194 -0.326,-0.513 -0.185,-0.654 0.141,-0.839 0.327,-0.188 0.467,-0.655 0.467,-1.028 0,-0.373 0.233,-0.328 0.28,-1.121 0.046,-0.793 0.233,-1.352 0.513,-1.679 0.219,-0.256 0.179,-0.649 0.064,-0.944 0.392,-0.289 0.831,-0.568 1.217,-0.706 0.973,-0.348 1.322,-0.626 1.389,-0.973 0.072,-0.348 0.906,-0.975 1.115,-0.488 0.208,0.486 0.763,0.208 1.181,0.208 0.418,0 0.488,-0.486 0.555,-0.763 0.07,-0.279 1.043,-0.141 1.393,-0.348 0.346,-0.209 0.485,-0.974 0.972,-1.252 0.488,-0.277 0.903,0.348 1.252,0.139 0.347,-0.208 1.252,-0.416 1.808,-0.208 0.554,0.208 0.903,-0.208 1.598,-0.14 0.694,0.07 1.599,-0.207 1.807,-0.416 0.11,-0.109 0.698,-0.219 1.233,-0.299 0.139,0.285 -0.13,1.165 -0.087,1.382 0.045,0.232 1.679,1.68 1.96,2.007 0.28,0.326 0.701,0.326 0.933,0.746 0.234,0.421 -0.653,1.774 -0.84,2.055 -0.186,0.279 -0.279,1.399 -0.139,1.867 0.139,0.467 -0.701,0.747 -0.701,1.073 0,0.327 0.793,0.888 1.214,1.073 0.42,0.188 0.281,1.495 -0.093,1.822 -0.374,0.327 -0.56,0.932 -0.328,1.587 0.234,0.652 -1.399,1.166 -1.633,1.166 -0.038,0 -0.062,0.042 -0.078,0.097 -1.458,-0.27 -5.19,0.118 -5.472,0.231 C 11.49,2.129 11.018,2.299 10.611,2.443 10.426,2.135 10.04,1.852 9.46,1.852 8.559,1.852 8.495,2.754 8.465,3.158 8.436,3.563 4.824,2.815 3.858,1.852 2.895,0.887 0.653,1.261 0.593,0.732 0.546,0.348 0.21,0.148 -0.009,0.256 -0.024,0.162 -0.027,0.074 0,0"
             style="fill:#F0F0F0;fill-opacity:1;fill-rule:nonzero;stroke:none"
             id="path22"
             inkscape:connector-curvature="0" /></g><g
           id="g24"
           transform="translate(49.7864,49.3421)"><path
             d="m 0,0 c 0.141,-0.373 0.281,-1.68 -0.046,-2.194 -0.326,-0.513 -0.185,-0.654 0.141,-0.839 0.327,-0.188 0.467,-0.655 0.467,-1.028 0,-0.373 0.233,-0.328 0.28,-1.121 0.046,-0.793 0.233,-1.352 0.513,-1.679 0.219,-0.256 0.179,-0.649 0.064,-0.944 0.392,-0.289 0.831,-0.568 1.217,-0.706 0.973,-0.348 1.322,-0.626 1.389,-0.973 0.072,-0.348 0.906,-0.975 1.115,-0.488 0.208,0.486 0.763,0.208 1.181,0.208 0.418,0 0.488,-0.486 0.555,-0.763 0.07,-0.279 1.043,-0.141 1.393,-0.348 0.346,-0.209 0.485,-0.974 0.972,-1.252 0.488,-0.277 0.903,0.348 1.252,0.139 0.347,-0.208 1.252,-0.416 1.808,-0.208 0.554,0.208 0.903,-0.208 1.598,-0.14 0.694,0.07 1.599,-0.207 1.807,-0.416 0.11,-0.109 0.698,-0.219 1.233,-0.299 0.139,0.285 -0.13,1.165 -0.087,1.382 0.045,0.232 1.679,1.68 1.96,2.007 0.28,0.326 0.701,0.326 0.933,0.746 0.234,0.421 -0.653,1.774 -0.84,2.055 -0.186,0.279 -0.279,1.399 -0.139,1.867 0.139,0.467 -0.701,0.747 -0.701,1.073 0,0.327 0.793,0.888 1.214,1.073 0.42,0.188 0.281,1.495 -0.093,1.822 -0.374,0.327 -0.56,0.932 -0.328,1.587 0.234,0.652 -1.399,1.166 -1.633,1.166 -0.038,0 -0.062,0.042 -0.078,0.097 -1.458,-0.27 -5.19,0.118 -5.472,0.231 C 11.49,2.129 11.018,2.299 10.611,2.443 10.426,2.135 10.04,1.852 9.46,1.852 8.559,1.852 8.495,2.754 8.465,3.158 8.436,3.563 4.824,2.815 3.858,1.852 2.895,0.887 0.653,1.261 0.593,0.732 0.546,0.348 0.21,0.148 -0.009,0.256 -0.024,0.162 -0.027,0.074 0,0 Z"
             style="fill:none;stroke:#ffffff;stroke-width:0.25;stroke-linecap:butt;stroke-linejoin:miter;stroke-miterlimit:10;stroke-dasharray:none;stroke-opacity:1"
             id="path26"
             inkscape:connector-curvature="0" /></g><g
           id="g28"
           transform="translate(58.0334,19.3099)"><path
             d="m 0,0 c -0.083,0.419 1.256,2.343 1.59,2.343 0.278,0 0.383,1.849 0.264,2.81 -1.037,0.717 -1.899,0.961 -1.899,0.961 0,0 -2.787,0.138 -3.252,0.324 -0.465,0.186 -0.93,-0.604 -1.348,-0.279 -0.417,0.324 -1.023,-0.092 -0.929,-0.557 0.093,-0.464 0.975,-0.745 0.975,-1.441 0,-0.696 1.767,-1.72 1.72,-2.091 -0.032,-0.26 1.06,-0.969 1.711,-1.924 0.347,-0.219 0.716,-0.504 1.081,-0.798 C -0.015,-0.346 0.021,-0.106 0,0"
             style="fill:#F0F0F0;fill-opacity:1;fill-rule:nonzero;stroke:none"
             id="path30"
             inkscape:connector-curvature="0" /></g><g
           id="g32"
           transform="translate(58.0334,19.3099)"><path
             d="m 0,0 c -0.083,0.419 1.256,2.343 1.59,2.343 0.278,0 0.383,1.849 0.264,2.81 -1.037,0.717 -1.899,0.961 -1.899,0.961 0,0 -2.787,0.138 -3.252,0.324 -0.465,0.186 -0.93,-0.604 -1.348,-0.279 -0.417,0.324 -1.023,-0.092 -0.929,-0.557 0.093,-0.464 0.975,-0.745 0.975,-1.441 0,-0.696 1.767,-1.72 1.72,-2.091 -0.032,-0.26 1.06,-0.969 1.711,-1.924 0.347,-0.219 0.716,-0.504 1.081,-0.798 C -0.015,-0.346 0.021,-0.106 0,0 Z"
             style="fill:none;stroke:#ffffff;stroke-width:0.25;stroke-linecap:butt;stroke-linejoin:miter;stroke-miterlimit:10;stroke-dasharray:none;stroke-opacity:1"
             id="path34"
             inkscape:connector-curvature="0" /></g><g
           id="g36"
           transform="translate(55.1545,21.3802)"><path
             d="m 0,0 c 0.047,0.371 -1.72,1.395 -1.72,2.091 0,0.696 -0.883,0.976 -0.975,1.44 -0.094,0.466 0.511,0.882 0.929,0.558 0.418,-0.325 0.883,0.465 1.348,0.279 0.465,-0.186 3.252,-0.324 3.252,-0.324 0,0 0.862,-0.244 1.899,-0.961 C 4.711,3.276 4.679,3.438 4.636,3.534 4.386,4.121 4.636,4.789 3.967,5.04 3.622,5.169 3.479,5.765 3.418,6.313 3.103,6.218 2.836,6.139 2.69,6.102 2.135,5.963 0.953,6.033 0.535,6.589 0.225,7.003 -0.741,7.61 -1.215,7.894 -1.409,7.724 -2.15,7.089 -2.474,7.051 -2.848,7.003 -2.613,6.022 -2.987,6.022 -3.36,6.022 -3.641,5.37 -3.734,5.089 -3.827,4.81 -4.666,5.276 -5.041,5.137 -5.308,5.035 -6.095,4.913 -6.524,4.851 c 0.065,-0.426 0.04,-0.897 0.379,-0.897 0.561,0 1.588,0.061 1.619,-0.685 0.029,-0.747 1.369,-2.397 1.865,-2.957 0.498,-0.561 1.619,-0.436 1.681,-0.903 0.063,-0.467 0.872,-0.902 1.806,-0.965 C 1.079,-1.572 1.384,-1.719 1.711,-1.925 1.06,-0.97 -0.032,-0.261 0,0"
             style="fill:#F0F0F0;fill-opacity:1;fill-rule:nonzero;stroke:none"
             id="path38"
             inkscape:connector-curvature="0" /></g><g
           id="g40"
           transform="translate(55.1545,21.3802)"><path
             d="m 0,0 c 0.047,0.371 -1.72,1.395 -1.72,2.091 0,0.696 -0.883,0.976 -0.975,1.44 -0.094,0.466 0.511,0.882 0.929,0.558 0.418,-0.325 0.883,0.465 1.348,0.279 0.465,-0.186 3.252,-0.324 3.252,-0.324 0,0 0.862,-0.244 1.899,-0.961 C 4.711,3.276 4.679,3.438 4.636,3.534 4.386,4.121 4.636,4.789 3.967,5.04 3.622,5.169 3.479,5.765 3.418,6.313 3.103,6.218 2.836,6.139 2.69,6.102 2.135,5.963 0.953,6.033 0.535,6.589 0.225,7.003 -0.741,7.61 -1.215,7.894 -1.409,7.724 -2.15,7.089 -2.474,7.051 -2.848,7.003 -2.613,6.022 -2.987,6.022 -3.36,6.022 -3.641,5.37 -3.734,5.089 -3.827,4.81 -4.666,5.276 -5.041,5.137 -5.308,5.035 -6.095,4.913 -6.524,4.851 c 0.065,-0.426 0.04,-0.897 0.379,-0.897 0.561,0 1.588,0.061 1.619,-0.685 0.029,-0.747 1.369,-2.397 1.865,-2.957 0.498,-0.561 1.619,-0.436 1.681,-0.903 0.063,-0.467 0.872,-0.902 1.806,-0.965 C 1.079,-1.572 1.384,-1.719 1.711,-1.925 1.06,-0.97 -0.032,-0.261 0,0 Z"
             style="fill:none;stroke:#ffffff;stroke-width:0.25;stroke-linecap:butt;stroke-linejoin:miter;stroke-miterlimit:10;stroke-dasharray:none;stroke-opacity:1"
             id="path42"
             inkscape:connector-curvature="0" /></g><g
           id="g44"
           transform="translate(62.0637,12.4203)"><path
             d="M 0,0 C 0.467,0.092 0.187,0.466 0.514,0.793 0.84,1.119 1.213,1.772 1.261,2.006 1.266,2.031 1.283,2.049 1.306,2.064 0.672,2.54 0.229,2.882 0.088,3.371 -0.054,3.869 0.093,4.844 0.316,5.555 -0.046,5.812 -1.158,6.581 -1.508,6.581 -1.854,6.581 -2.386,5.812 -2.518,5.074 -1.701,4.639 -1.38,4.328 -1.945,3.764 -2.535,3.172 -2.66,1.181 -2.008,0.652 -1.386,0.148 -1.207,-0.852 -0.605,-1.137 -0.436,-0.635 -0.308,-0.064 0,0"
             style="fill:#F0F0F0;fill-opacity:1;fill-rule:nonzero;stroke:none"
             id="path46"
             inkscape:connector-curvature="0" /></g><g
           id="g48"
           transform="translate(62.0637,12.4203)"><path
             d="M 0,0 C 0.467,0.092 0.187,0.466 0.514,0.793 0.84,1.119 1.213,1.772 1.261,2.006 1.266,2.031 1.283,2.049 1.306,2.064 0.672,2.54 0.229,2.882 0.088,3.371 -0.054,3.869 0.093,4.844 0.316,5.555 -0.046,5.812 -1.158,6.581 -1.508,6.581 -1.854,6.581 -2.386,5.812 -2.518,5.074 -1.701,4.639 -1.38,4.328 -1.945,3.764 -2.535,3.172 -2.66,1.181 -2.008,0.652 -1.386,0.148 -1.207,-0.852 -0.605,-1.137 -0.436,-0.635 -0.308,-0.064 0,0 Z"
             style="fill:none;stroke:#ffffff;stroke-width:0.25;stroke-linecap:butt;stroke-linejoin:miter;stroke-miterlimit:10;stroke-dasharray:none;stroke-opacity:1"
             id="path50"
             inkscape:connector-curvature="0" /></g><g
           id="g52"
           transform="translate(53.1868,35.4066)"><path
             d="m 0,0 c -0.556,0.627 -1.945,0.627 -1.945,0.627 0,0 -0.14,-0.627 -0.349,-0.974 -0.175,-0.291 -1.185,-0.287 -1.832,-0.112 -0.184,-0.24 -1.024,-0.428 -1.141,-0.775 -0.14,-0.421 -1.167,-0.188 -0.839,-1.307 0.326,-1.121 -0.513,-0.748 -0.84,-0.607 -0.327,0.139 -1.775,-0.047 -2.148,-0.42 -0.374,-0.374 -0.887,-0.28 -1.215,-0.094 -0.326,0.185 -0.979,0.28 -1.259,-0.186 -0.28,-0.467 -0.793,0.371 -1.215,0.327 -0.419,-0.047 -0.233,-0.934 -0.233,-1.122 0,-0.185 0.655,-0.746 1.074,-0.56 0.42,0.187 0.934,-0.046 1.307,-0.279 0.374,-0.235 1.074,0.186 1.307,0.42 0.234,0.234 1.541,0.234 1.681,0.234 0.14,0 0.186,-0.748 0.42,-0.889 0.233,-0.139 1.121,-0.233 1.915,-0.279 0.792,-0.047 1.959,-0.42 2.333,-0.42 0.374,0 0.98,0.654 1.819,0.654 0.841,0 1.307,0.513 1.448,0.466 0.003,-10e-4 0.006,-0.005 0.008,-0.007 0.06,0.26 0.158,0.47 0.341,0.496 0.341,0.047 0.096,0.633 0.341,0.925 0.244,0.291 -0.196,0.876 0.244,0.828 0.437,-0.05 0.924,-0.098 0.924,0.534 0,0.214 0.115,0.403 0.282,0.56 -0.482,0.675 -0.827,1.753 -0.827,1.753 0,0 -1.043,-0.418 -1.601,0.207"
             style="fill:#F0F0F0;fill-opacity:1;fill-rule:nonzero;stroke:none"
             id="path54"
             inkscape:connector-curvature="0" /></g><g
           id="g56"
           transform="translate(53.1868,35.4066)"><path
             d="m 0,0 c -0.556,0.627 -1.945,0.627 -1.945,0.627 0,0 -0.14,-0.627 -0.349,-0.974 -0.175,-0.291 -1.185,-0.287 -1.832,-0.112 -0.184,-0.24 -1.024,-0.428 -1.141,-0.775 -0.14,-0.421 -1.167,-0.188 -0.839,-1.307 0.326,-1.121 -0.513,-0.748 -0.84,-0.607 -0.327,0.139 -1.775,-0.047 -2.148,-0.42 -0.374,-0.374 -0.887,-0.28 -1.215,-0.094 -0.326,0.185 -0.979,0.28 -1.259,-0.186 -0.28,-0.467 -0.793,0.371 -1.215,0.327 -0.419,-0.047 -0.233,-0.934 -0.233,-1.122 0,-0.185 0.655,-0.746 1.074,-0.56 0.42,0.187 0.934,-0.046 1.307,-0.279 0.374,-0.235 1.074,0.186 1.307,0.42 0.234,0.234 1.541,0.234 1.681,0.234 0.14,0 0.186,-0.748 0.42,-0.889 0.233,-0.139 1.121,-0.233 1.915,-0.279 0.792,-0.047 1.959,-0.42 2.333,-0.42 0.374,0 0.98,0.654 1.819,0.654 0.841,0 1.307,0.513 1.448,0.466 0.003,-10e-4 0.006,-0.005 0.008,-0.007 0.06,0.26 0.158,0.47 0.341,0.496 0.341,0.047 0.096,0.633 0.341,0.925 0.244,0.291 -0.196,0.876 0.244,0.828 0.437,-0.05 0.924,-0.098 0.924,0.534 0,0.214 0.115,0.403 0.282,0.56 -0.482,0.675 -0.827,1.753 -0.827,1.753 0,0 -1.043,-0.418 -1.601,0.207 z"
             style="fill:none;stroke:#ffffff;stroke-width:0.25;stroke-linecap:butt;stroke-linejoin:miter;stroke-miterlimit:10;stroke-dasharray:none;stroke-opacity:1"
             id="path58"
             inkscape:connector-curvature="0" /></g><g
           id="g60"
           transform="translate(66.6838,33.6585)"><path
             d="M 0,0 C -0.161,0.053 -0.338,0.164 -0.493,0.301 -1.079,0.432 -1.645,0.604 -1.817,0.775 -2.164,1.123 -3.554,1.332 -3.764,1.401 -3.971,1.473 -5.293,0.15 -5.711,0.15 c -0.417,0 -2.225,-0.209 -2.225,-0.694 0,-0.487 -2.222,-0.559 -2.849,0 -0.099,0.088 -0.194,0.205 -0.284,0.332 -0.167,-0.157 -0.283,-0.346 -0.283,-0.559 0,-0.633 -0.486,-0.584 -0.923,-0.535 -0.44,0.048 0,-0.537 -0.245,-0.828 -0.244,-0.292 0,-0.878 -0.34,-0.925 -0.183,-0.026 -0.281,-0.236 -0.341,-0.496 0.146,-0.07 0.505,-0.787 0.505,-0.787 0,0 -0.019,-0.017 -0.048,-0.043 0.473,-0.283 1.439,-0.89 1.75,-1.304 0.418,-0.556 1.599,-0.626 2.155,-0.488 0.557,0.138 2.921,0.904 2.921,0.904 0,0 0.557,-0.208 0.903,-0.277 0.082,-0.017 0.304,-0.054 0.592,-0.096 0.17,0.175 0.693,0.326 1.25,0.884 0.653,0.654 1.634,2.989 1.913,3.174 0.281,0.188 1.029,0.608 1.402,0.887 C 0.514,-0.42 0.422,-0.141 0,0"
             style="fill:#F0F0F0;fill-opacity:1;fill-rule:nonzero;stroke:none"
             id="path62"
             inkscape:connector-curvature="0" /></g><g
           id="g64"
           transform="translate(66.6838,33.6585)"><path
             d="M 0,0 C -0.161,0.053 -0.338,0.164 -0.493,0.301 -1.079,0.432 -1.645,0.604 -1.817,0.775 -2.164,1.123 -3.554,1.332 -3.764,1.401 -3.971,1.473 -5.293,0.15 -5.711,0.15 c -0.417,0 -2.225,-0.209 -2.225,-0.694 0,-0.487 -2.222,-0.559 -2.849,0 -0.099,0.088 -0.194,0.205 -0.284,0.332 -0.167,-0.157 -0.283,-0.346 -0.283,-0.559 0,-0.633 -0.486,-0.584 -0.923,-0.535 -0.44,0.048 0,-0.537 -0.245,-0.828 -0.244,-0.292 0,-0.878 -0.34,-0.925 -0.183,-0.026 -0.281,-0.236 -0.341,-0.496 0.146,-0.07 0.505,-0.787 0.505,-0.787 0,0 -0.019,-0.017 -0.048,-0.043 0.473,-0.283 1.439,-0.89 1.75,-1.304 0.418,-0.556 1.599,-0.626 2.155,-0.488 0.557,0.138 2.921,0.904 2.921,0.904 0,0 0.557,-0.208 0.903,-0.277 0.082,-0.017 0.304,-0.054 0.592,-0.096 0.17,0.175 0.693,0.326 1.25,0.884 0.653,0.654 1.634,2.989 1.913,3.174 0.281,0.188 1.029,0.608 1.402,0.887 C 0.514,-0.42 0.422,-0.141 0,0 Z"
             style="fill:none;stroke:#ffffff;stroke-width:0.25;stroke-linecap:butt;stroke-linejoin:miter;stroke-miterlimit:10;stroke-dasharray:none;stroke-opacity:1"
             id="path66"
             inkscape:connector-curvature="0" /></g><g
           id="g68"
           transform="translate(58.0549,38.4671)"><path
             d="m 0,0 c -0.35,0.207 -1.322,0.069 -1.393,0.348 -0.067,0.277 -0.136,0.763 -0.554,0.763 -0.418,0 -0.974,0.278 -1.182,-0.208 -0.209,-0.487 -1.043,0.14 -1.114,0.488 -0.068,0.347 -0.416,0.625 -1.39,0.973 C -6.019,2.502 -6.458,2.781 -6.85,3.07 -6.882,2.986 -6.92,2.908 -6.961,2.848 -7.147,2.566 -7.801,3.08 -8.081,2.8 -8.361,2.52 -9.295,2.474 -9.808,2.006 c -0.513,-0.467 -1.588,-0.699 -2.194,-0.84 -0.607,-0.141 -0.093,-0.7 0.14,-1.121 0.234,-0.418 0.234,-1.446 0.701,-1.774 0.467,-0.326 2.007,-1.306 2.193,-1.633 0.032,-0.056 0.013,-0.109 -0.026,-0.158 0.647,-0.174 1.657,-0.178 1.832,0.113 0.209,0.346 0.349,0.973 0.349,0.973 0,0 1.389,0 1.945,-0.627 0.557,-0.625 1.6,-0.207 1.6,-0.207 0,0 0.058,-0.177 0.152,-0.424 0.15,0.343 0.346,0.645 0.585,0.68 0.587,0.083 1.422,0.167 2.008,1.004 0.303,0.431 0.803,0.774 1.219,1.004 C 0.415,-0.66 0.27,-0.163 0,0"
             style="fill:#F0F0F0;fill-opacity:1;fill-rule:nonzero;stroke:none"
             id="path70"
             inkscape:connector-curvature="0" /></g><g
           id="g72"
           transform="translate(58.0549,38.4671)"><path
             d="m 0,0 c -0.35,0.207 -1.322,0.069 -1.393,0.348 -0.067,0.277 -0.136,0.763 -0.554,0.763 -0.418,0 -0.974,0.278 -1.182,-0.208 -0.209,-0.487 -1.043,0.14 -1.114,0.488 -0.068,0.347 -0.416,0.625 -1.39,0.973 C -6.019,2.502 -6.458,2.781 -6.85,3.07 -6.882,2.986 -6.92,2.908 -6.961,2.848 -7.147,2.566 -7.801,3.08 -8.081,2.8 -8.361,2.52 -9.295,2.474 -9.808,2.006 c -0.513,-0.467 -1.588,-0.699 -2.194,-0.84 -0.607,-0.141 -0.093,-0.7 0.14,-1.121 0.234,-0.418 0.234,-1.446 0.701,-1.774 0.467,-0.326 2.007,-1.306 2.193,-1.633 0.032,-0.056 0.013,-0.109 -0.026,-0.158 0.647,-0.174 1.657,-0.178 1.832,0.113 0.209,0.346 0.349,0.973 0.349,0.973 0,0 1.389,0 1.945,-0.627 0.557,-0.625 1.6,-0.207 1.6,-0.207 0,0 0.058,-0.177 0.152,-0.424 0.15,0.343 0.346,0.645 0.585,0.68 0.587,0.083 1.422,0.167 2.008,1.004 0.303,0.431 0.803,0.774 1.219,1.004 C 0.415,-0.66 0.27,-0.163 0,0 Z"
             style="fill:none;stroke:#ffffff;stroke-width:0.25;stroke-linecap:butt;stroke-linejoin:miter;stroke-miterlimit:10;stroke-dasharray:none;stroke-opacity:1"
             id="path74"
             inkscape:connector-curvature="0" /></g><g
           id="g76"
           transform="translate(63.6858,37.0062)"><path
             d="m 0,0 c -0.695,-0.068 -1.044,0.348 -1.599,0.14 -0.555,-0.208 -1.461,0 -1.807,0.208 -0.35,0.209 -0.765,-0.416 -1.252,-0.139 -0.108,0.062 -0.197,0.149 -0.277,0.248 -0.416,-0.23 -0.916,-0.573 -1.219,-1.004 -0.586,-0.837 -1.421,-0.921 -2.008,-1.004 -0.238,-0.035 -0.435,-0.337 -0.585,-0.68 0.191,-0.494 0.542,-1.29 0.96,-1.661 0.627,-0.558 2.85,-0.487 2.85,0 0,0.486 1.807,0.695 2.224,0.695 0.418,0 1.74,1.322 1.947,1.251 0.21,-0.07 1.6,-0.279 1.947,-0.626 0.173,-0.172 0.738,-0.344 1.324,-0.475 -0.246,0.217 -0.441,0.496 -0.441,0.727 0,0.372 0.703,1.352 0.934,1.539 0.02,0.015 0.029,0.043 0.042,0.066 -0.535,0.08 -1.123,0.19 -1.233,0.299 C 1.599,-0.207 0.693,0.07 0,0"
             style="fill:#F0F0F0;fill-opacity:1;fill-rule:nonzero;stroke:none"
             id="path78"
             inkscape:connector-curvature="0" /></g><g
           id="g80"
           transform="translate(63.6858,37.0062)"><path
             d="m 0,0 c -0.695,-0.068 -1.044,0.348 -1.599,0.14 -0.555,-0.208 -1.461,0 -1.807,0.208 -0.35,0.209 -0.765,-0.416 -1.252,-0.139 -0.108,0.062 -0.197,0.149 -0.277,0.248 -0.416,-0.23 -0.916,-0.573 -1.219,-1.004 -0.586,-0.837 -1.421,-0.921 -2.008,-1.004 -0.238,-0.035 -0.435,-0.337 -0.585,-0.68 0.191,-0.494 0.542,-1.29 0.96,-1.661 0.627,-0.558 2.85,-0.487 2.85,0 0,0.486 1.807,0.695 2.224,0.695 0.418,0 1.74,1.322 1.947,1.251 0.21,-0.07 1.6,-0.279 1.947,-0.626 0.173,-0.172 0.738,-0.344 1.324,-0.475 -0.246,0.217 -0.441,0.496 -0.441,0.727 0,0.372 0.703,1.352 0.934,1.539 0.02,0.015 0.029,0.043 0.042,0.066 -0.535,0.08 -1.123,0.19 -1.233,0.299 C 1.599,-0.207 0.693,0.07 0,0 Z"
             style="fill:none;stroke:#ffffff;stroke-width:0.25;stroke-linecap:butt;stroke-linejoin:miter;stroke-miterlimit:10;stroke-dasharray:none;stroke-opacity:1"
             id="path82"
             inkscape:connector-curvature="0" /></g><g
           id="g84"
           transform="translate(29.2087,42.5951)"><path
             d="m 0,0 c 0.38,0.38 1.046,0.19 1.427,-0.19 0.381,-0.381 0.951,-0.475 1.523,-1.045 0.146,-0.149 0.304,-0.282 0.459,-0.4 0.054,0.402 0.064,1.2 0.241,1.614 0.186,0.434 -0.187,0.996 0.125,0.996 0.309,0 1.182,0 1.182,0.559 0,0.56 0.249,0.373 0.436,0.686 C 5.581,2.53 4.833,3.153 4.707,3.341 4.584,3.526 5.268,3.589 5.767,4.334 5.946,4.606 5.872,5.161 5.705,5.761 5.623,5.54 5.456,5.38 5.174,5.549 4.707,5.829 3.994,5.673 3.059,5.486 2.125,5.3 1.846,4.397 2.186,4.024 2.529,3.649 1.285,3.464 1.192,3.961 1.098,4.461 0.166,4.117 0.226,3.464 0.29,2.811 -0.801,2.562 -0.738,1.753 -0.675,0.942 -1.734,0.196 -2.419,-0.208 c -0.106,-0.064 -0.217,-0.129 -0.329,-0.193 0.344,-0.159 0.62,-0.264 0.75,-0.264 0.572,0 1.618,0.283 1.998,0.665"
             style="fill:#F0F0F0;fill-opacity:1;fill-rule:nonzero;stroke:none"
             id="path86"
             inkscape:connector-curvature="0" /></g><g
           id="g88"
           transform="translate(29.2087,42.5951)"><path
             d="m 0,0 c 0.38,0.38 1.046,0.19 1.427,-0.19 0.381,-0.381 0.951,-0.475 1.523,-1.045 0.146,-0.149 0.304,-0.282 0.459,-0.4 0.054,0.402 0.064,1.2 0.241,1.614 0.186,0.434 -0.187,0.996 0.125,0.996 0.309,0 1.182,0 1.182,0.559 0,0.56 0.249,0.373 0.436,0.686 C 5.581,2.53 4.833,3.153 4.707,3.341 4.584,3.526 5.268,3.589 5.767,4.334 5.946,4.606 5.872,5.161 5.705,5.761 5.623,5.54 5.456,5.38 5.174,5.549 4.707,5.829 3.994,5.673 3.059,5.486 2.125,5.3 1.846,4.397 2.186,4.024 2.529,3.649 1.285,3.464 1.192,3.961 1.098,4.461 0.166,4.117 0.226,3.464 0.29,2.811 -0.801,2.562 -0.738,1.753 -0.675,0.942 -1.734,0.196 -2.419,-0.208 c -0.106,-0.064 -0.217,-0.129 -0.329,-0.193 0.344,-0.159 0.62,-0.264 0.75,-0.264 0.572,0 1.618,0.283 1.998,0.665 z"
             style="fill:none;stroke:#ffffff;stroke-width:0.25;stroke-linecap:butt;stroke-linejoin:miter;stroke-miterlimit:10;stroke-dasharray:none;stroke-opacity:1"
             id="path90"
             inkscape:connector-curvature="0" /></g><g
           id="g92"
           transform="translate(32.7483,38.9769)"><path
             d="m 0,0 c -0.415,-0.232 -0.793,-0.73 -0.736,-1.787 0.405,0.012 0.975,-0.035 1.388,-0.156 -0.1,1.15 -0.549,1.506 -0.665,1.744 C -0.047,-0.135 -0.036,-0.067 0,0"
             style="fill:#F0F0F0;fill-opacity:1;fill-rule:nonzero;stroke:none"
             id="path94"
             inkscape:connector-curvature="0" /></g><g
           id="g96"
           transform="translate(32.7483,38.9769)"><path
             d="m 0,0 c -0.415,-0.232 -0.793,-0.73 -0.736,-1.787 0.405,0.012 0.975,-0.035 1.388,-0.156 -0.1,1.15 -0.549,1.506 -0.665,1.744 C -0.047,-0.135 -0.036,-0.067 0,0 Z"
             style="fill:none;stroke:#ffffff;stroke-width:0.25;stroke-linecap:butt;stroke-linejoin:miter;stroke-miterlimit:10;stroke-dasharray:none;stroke-opacity:1"
             id="path98"
             inkscape:connector-curvature="0" /></g><g
           id="g100"
           transform="translate(25.3279,41.3148)"><path
             d="m 0,0 c 0.046,-0.328 0.56,-1.121 0.746,-0.795 0.187,0.327 0.654,-0.42 1.074,-0.653 0.42,-0.234 1.26,-0.514 1.306,-0.794 0.047,-0.279 0.187,-0.887 0.608,-0.7 0.42,0.187 0.933,0.84 0.933,0.467 0,-0.373 0.14,-1.074 0.606,-0.98 0.468,0.094 0.608,-0.794 1.075,-0.699 0.085,0.014 0.201,0.025 0.337,0.029 -0.058,1.057 0.32,1.555 0.735,1.787 0.097,0.186 0.377,0.381 0.422,0.609 0.062,0.311 -0.622,0.934 -0.561,1.307 0.004,0.02 0.007,0.046 0.009,0.068 C 7.135,-0.236 6.977,-0.104 6.831,0.045 6.259,0.615 5.688,0.709 5.308,1.09 4.927,1.471 4.261,1.66 3.881,1.28 3.5,0.898 2.455,0.615 1.883,0.615 1.752,0.615 1.477,0.721 1.133,0.879 0.683,0.62 0.205,0.373 -0.272,0.277 -0.177,0.147 -0.031,0.216 0,0"
             style="fill:#F0F0F0;fill-opacity:1;fill-rule:nonzero;stroke:none"
             id="path102"
             inkscape:connector-curvature="0" /></g><g
           id="g104"
           transform="translate(25.3279,41.3148)"><path
             d="m 0,0 c 0.046,-0.328 0.56,-1.121 0.746,-0.795 0.187,0.327 0.654,-0.42 1.074,-0.653 0.42,-0.234 1.26,-0.514 1.306,-0.794 0.047,-0.279 0.187,-0.887 0.608,-0.7 0.42,0.187 0.933,0.84 0.933,0.467 0,-0.373 0.14,-1.074 0.606,-0.98 0.468,0.094 0.608,-0.794 1.075,-0.699 0.085,0.014 0.201,0.025 0.337,0.029 -0.058,1.057 0.32,1.555 0.735,1.787 0.097,0.186 0.377,0.381 0.422,0.609 0.062,0.311 -0.622,0.934 -0.561,1.307 0.004,0.02 0.007,0.046 0.009,0.068 C 7.135,-0.236 6.977,-0.104 6.831,0.045 6.259,0.615 5.688,0.709 5.308,1.09 4.927,1.471 4.261,1.66 3.881,1.28 3.5,0.898 2.455,0.615 1.883,0.615 1.752,0.615 1.477,0.721 1.133,0.879 0.683,0.62 0.205,0.373 -0.272,0.277 -0.177,0.147 -0.031,0.216 0,0 Z"
             style="fill:none;stroke:#ffffff;stroke-width:0.25;stroke-linecap:butt;stroke-linejoin:miter;stroke-miterlimit:10;stroke-dasharray:none;stroke-opacity:1"
             id="path106"
             inkscape:connector-curvature="0" /></g><g
           id="g108"
           transform="translate(79.2268,25.9564)"><path
             d="m 0,0 c -0.436,0.062 -0.997,0.247 -0.81,0.497 0.012,0.016 0.038,0.047 0.056,0.071 C -1.337,1.04 -1.49,2.566 -1.118,2.939 -0.644,3.415 -1.881,5.223 -2.45,5.888 -2.718,6.201 -3.297,7.241 -3.838,8.261 -4.332,8.101 -4.77,7.921 -4.854,7.778 -5.041,7.469 -5.665,7.155 -6.037,7.155 c -0.373,0 -0.747,0.188 -1.059,-0.123 -0.311,-0.31 -0.746,-0.435 -0.933,-0.25 -0.187,0.188 -0.81,0.373 -1.246,0.373 -0.434,0 -1.803,0.375 -2.115,0.375 -0.184,0 -0.484,-0.025 -0.81,-0.07 0.07,-0.135 0.015,-0.296 -0.201,-0.459 -0.373,-0.279 -1.121,-0.699 -1.402,-0.887 -0.279,-0.185 -1.26,-2.52 -1.913,-3.174 -0.653,-0.653 -1.261,-0.747 -1.307,-0.979 -0.047,-0.233 0.747,-0.841 0.747,-1.214 0,-0.375 0.185,-0.747 0.7,-0.747 0.513,0 -0.047,-1.214 0.279,-1.308 0.328,-0.092 2.334,-0.232 2.334,-0.7 0,-0.363 0.222,-0.669 0.125,-0.921 0.565,-0.093 0.979,-0.861 1.199,-0.806 0.249,0.062 1.93,-0.311 2.241,-0.249 0.31,0.062 1.743,0 2.241,-0.062 0.497,-0.062 1.056,0.187 1.492,0.622 0.436,0.437 1.994,0.498 2.491,0.437 0.496,-0.064 1.493,-0.188 1.681,-0.5 0.097,-0.162 0.683,-0.407 1.276,-0.606 0.071,0.309 -0.02,0.711 -0.002,1.106 0.032,0.653 0.405,1.648 1.058,1.711 0.653,0.062 1.182,0.062 1.09,1.15 C 1.927,-0.088 1.927,-0.06 1.924,-0.025 1.593,0.258 1.283,0.497 1.182,0.497 0.934,0.497 0.186,-0.026 0,0"
             style="fill:#F0F0F0;fill-opacity:1;fill-rule:nonzero;stroke:none"
             id="path110"
             inkscape:connector-curvature="0" /></g><g
           id="g112"
           transform="translate(79.2268,25.9564)"><path
             d="m 0,0 c -0.436,0.062 -0.997,0.247 -0.81,0.497 0.012,0.016 0.038,0.047 0.056,0.071 C -1.337,1.04 -1.49,2.566 -1.118,2.939 -0.644,3.415 -1.881,5.223 -2.45,5.888 -2.718,6.201 -3.297,7.241 -3.838,8.261 -4.332,8.101 -4.77,7.921 -4.854,7.778 -5.041,7.469 -5.665,7.155 -6.037,7.155 c -0.373,0 -0.747,0.188 -1.059,-0.123 -0.311,-0.31 -0.746,-0.435 -0.933,-0.25 -0.187,0.188 -0.81,0.373 -1.246,0.373 -0.434,0 -1.803,0.375 -2.115,0.375 -0.184,0 -0.484,-0.025 -0.81,-0.07 0.07,-0.135 0.015,-0.296 -0.201,-0.459 -0.373,-0.279 -1.121,-0.699 -1.402,-0.887 -0.279,-0.185 -1.26,-2.52 -1.913,-3.174 -0.653,-0.653 -1.261,-0.747 -1.307,-0.979 -0.047,-0.233 0.747,-0.841 0.747,-1.214 0,-0.375 0.185,-0.747 0.7,-0.747 0.513,0 -0.047,-1.214 0.279,-1.308 0.328,-0.092 2.334,-0.232 2.334,-0.7 0,-0.363 0.222,-0.669 0.125,-0.921 0.565,-0.093 0.979,-0.861 1.199,-0.806 0.249,0.062 1.93,-0.311 2.241,-0.249 0.31,0.062 1.743,0 2.241,-0.062 0.497,-0.062 1.056,0.187 1.492,0.622 0.436,0.437 1.994,0.498 2.491,0.437 0.496,-0.064 1.493,-0.188 1.681,-0.5 0.097,-0.162 0.683,-0.407 1.276,-0.606 0.071,0.309 -0.02,0.711 -0.002,1.106 0.032,0.653 0.405,1.648 1.058,1.711 0.653,0.062 1.182,0.062 1.09,1.15 C 1.927,-0.088 1.927,-0.06 1.924,-0.025 1.593,0.258 1.283,0.497 1.182,0.497 0.934,0.497 0.186,-0.026 0,0 Z"
             style="fill:none;stroke:#ffffff;stroke-width:0.25;stroke-linecap:butt;stroke-linejoin:miter;stroke-miterlimit:10;stroke-dasharray:none;stroke-opacity:1"
             id="path114"
             inkscape:connector-curvature="0" /></g><g
           id="g116"
           transform="translate(76.053,22.9691)"><path
             d="m 0,0 c -0.497,0.062 -2.055,0 -2.491,-0.437 -0.436,-0.435 -0.995,-0.684 -1.492,-0.622 -0.498,0.062 -1.931,0.124 -2.242,0.062 -0.31,-0.062 -1.991,0.311 -2.24,0.249 -0.221,-0.055 -0.635,0.713 -1.199,0.807 -0.028,-0.071 -0.077,-0.137 -0.171,-0.2 -0.42,-0.281 -0.468,-1.025 0,-1.447 0.466,-0.42 1.073,-1.353 0.653,-1.353 -0.419,0 -0.747,-0.56 -0.7,-0.84 0.047,-0.281 -0.14,-0.887 0,-1.028 0.141,-0.139 1.12,-1.074 1.166,-1.353 0.042,-0.246 0.444,-0.374 0.413,-0.59 0.784,0.059 2.448,0.154 2.824,-0.033 0.499,-0.25 2.243,-0.373 2.243,-0.373 0.496,0 0.932,0.186 0.808,0.497 -0.105,0.263 0.543,0.436 1.011,0.485 -0.081,0.287 -0.137,0.524 -0.016,0.574 0.233,0.093 1.588,0.28 2.147,0 0.284,-0.143 0.604,-0.007 0.85,0.159 -0.074,0.261 -0.146,0.468 -0.29,0.495 -0.343,0.061 -0.87,1.493 -0.435,1.587 0.435,0.092 0.996,1.588 1.681,1.804 0.272,0.086 0.388,0.25 0.437,0.452 C 2.364,-0.906 1.778,-0.662 1.681,-0.5 1.493,-0.187 0.496,-0.063 0,0"
             style="fill:#F0F0F0;fill-opacity:1;fill-rule:nonzero;stroke:none"
             id="path118"
             inkscape:connector-curvature="0" /></g><g
           id="g120"
           transform="translate(76.053,22.9691)"><path
             d="m 0,0 c -0.497,0.062 -2.055,0 -2.491,-0.437 -0.436,-0.435 -0.995,-0.684 -1.492,-0.622 -0.498,0.062 -1.931,0.124 -2.242,0.062 -0.31,-0.062 -1.991,0.311 -2.24,0.249 -0.221,-0.055 -0.635,0.713 -1.199,0.807 -0.028,-0.071 -0.077,-0.137 -0.171,-0.2 -0.42,-0.281 -0.468,-1.025 0,-1.447 0.466,-0.42 1.073,-1.353 0.653,-1.353 -0.419,0 -0.747,-0.56 -0.7,-0.84 0.047,-0.281 -0.14,-0.887 0,-1.028 0.141,-0.139 1.12,-1.074 1.166,-1.353 0.042,-0.246 0.444,-0.374 0.413,-0.59 0.784,0.059 2.448,0.154 2.824,-0.033 0.499,-0.25 2.243,-0.373 2.243,-0.373 0.496,0 0.932,0.186 0.808,0.497 -0.105,0.263 0.543,0.436 1.011,0.485 -0.081,0.287 -0.137,0.524 -0.016,0.574 0.233,0.093 1.588,0.28 2.147,0 0.284,-0.143 0.604,-0.007 0.85,0.159 -0.074,0.261 -0.146,0.468 -0.29,0.495 -0.343,0.061 -0.87,1.493 -0.435,1.587 0.435,0.092 0.996,1.588 1.681,1.804 0.272,0.086 0.388,0.25 0.437,0.452 C 2.364,-0.906 1.778,-0.662 1.681,-0.5 1.493,-0.187 0.496,-0.063 0,0 Z"
             style="fill:none;stroke:#ffffff;stroke-width:0.25;stroke-linecap:butt;stroke-linejoin:miter;stroke-miterlimit:10;stroke-dasharray:none;stroke-opacity:1"
             id="path122"
             inkscape:connector-curvature="0" /></g><g
           id="g124"
           transform="translate(63.3694,14.4847)"><path
             d="M 0,0 0,0 C 0.02,0.015 0.047,0.025 0.08,0.035 0.086,0.036 0.09,0.039 0.098,0.041 0.131,0.049 0.172,0.054 0.215,0.058 0.221,0.06 0.228,0.06 0.232,0.06 0.414,0.075 0.657,0.064 0.907,0.072 0.922,0.073 0.94,0.073 0.958,0.073 1.014,0.076 1.068,0.08 1.125,0.084 1.146,0.088 1.168,0.088 1.19,0.09 1.263,0.1 1.334,0.111 1.401,0.129 1.961,0.268 2.102,0.875 2.381,0.735 2.661,0.596 4.155,1.357 4.342,1.637 4.366,1.67 4.377,1.701 4.381,1.732 4.411,1.948 4.01,2.076 3.968,2.322 3.922,2.602 2.942,3.536 2.802,3.676 2.772,3.705 2.761,3.758 2.755,3.82 c 0,0.006 -0.003,0.012 -0.003,0.018 -0.004,0.066 0,0.143 0.009,0.227 -1.46,-0.211 -3.626,-0.663 -3.626,-0.663 0,0 -0.053,0.039 -0.124,0.088 C -1.213,2.779 -1.359,1.805 -1.218,1.307 -1.077,0.817 -0.634,0.476 0,0"
             style="fill:#F0F0F0;fill-opacity:1;fill-rule:nonzero;stroke:none"
             id="path126"
             inkscape:connector-curvature="0" /></g><g
           id="g128"
           transform="translate(63.3694,14.4847)"><path
             d="M 0,0 0,0 C 0.02,0.015 0.047,0.025 0.08,0.035 0.086,0.036 0.09,0.039 0.098,0.041 0.131,0.049 0.172,0.054 0.215,0.058 0.221,0.06 0.228,0.06 0.232,0.06 0.414,0.075 0.657,0.064 0.907,0.072 0.922,0.073 0.94,0.073 0.958,0.073 1.014,0.076 1.068,0.08 1.125,0.084 1.146,0.088 1.168,0.088 1.19,0.09 1.263,0.1 1.334,0.111 1.401,0.129 1.961,0.268 2.102,0.875 2.381,0.735 2.661,0.596 4.155,1.357 4.342,1.637 4.366,1.67 4.377,1.701 4.381,1.732 4.411,1.948 4.01,2.076 3.968,2.322 3.922,2.602 2.942,3.536 2.802,3.676 2.772,3.705 2.761,3.758 2.755,3.82 c 0,0.006 -0.003,0.012 -0.003,0.018 -0.004,0.066 0,0.143 0.009,0.227 -1.46,-0.211 -3.626,-0.663 -3.626,-0.663 0,0 -0.053,0.039 -0.124,0.088 C -1.213,2.779 -1.359,1.805 -1.218,1.307 -1.077,0.817 -0.634,0.476 0,0 Z"
             style="fill:none;stroke:#ffffff;stroke-width:0.25;stroke-linecap:butt;stroke-linejoin:miter;stroke-miterlimit:10;stroke-dasharray:none;stroke-opacity:1"
             id="path130"
             inkscape:connector-curvature="0" /></g><g
           id="g132"
           transform="translate(99.1272,31.8851)"><path
             d="M 0,0 C 0.326,0.045 1.307,1.12 1.634,1.12 1.961,1.12 3.36,0.84 3.36,1.072 3.36,1.307 3.828,2.1 3.733,2.334 3.641,2.566 3.174,2.893 3.268,3.127 3.36,3.359 4.014,3.359 4.014,3.641 c 0,0.279 -0.513,0.42 -0.513,0.607 0,0.186 0.653,0.513 0.606,0.886 C 4.061,5.507 3.501,5.555 2.895,5.881 2.287,6.209 1.68,6.068 1.119,6.348 0.561,6.627 -0.607,6.441 -0.607,6.627 c 0,0.186 -0.747,0.794 -0.934,1.121 -0.187,0.326 -0.793,0.141 -1.166,-0.093 -0.375,-0.234 -0.702,-0.327 -1.074,-0.094 -0.373,0.234 -0.7,0.607 -1.027,0.467 -0.328,-0.139 -0.934,-0.047 -0.794,0.421 0.14,0.467 -0.606,1.492 -0.933,1.632 -0.327,0.142 -1.308,-0.092 -1.54,0.374 -0.235,0.468 -0.654,0.841 -0.467,1.167 0.186,0.327 -0.047,1.215 -0.28,1.588 -0.235,0.373 -1.401,0.326 -1.727,0.186 -0.327,-0.139 -1.075,0.14 -1.401,-0.046 -0.327,-0.188 -0.513,-0.513 -0.981,-0.513 -0.259,0 -0.433,0.034 -0.575,0.24 -0.505,-0.227 -1.352,-0.273 -1.352,-0.273 0,0 -1.247,-0.995 -1.247,-1.368 0,-0.373 -0.06,-0.997 -0.374,-0.686 -0.31,0.312 -1.617,0.313 -1.927,0.125 -0.313,-0.187 -0.81,0.747 -1.37,0.436 -0.56,-0.311 -1.307,0.435 -1.37,0.125 -0.062,-0.313 -0.871,-0.063 -1.432,0.186 -0.559,0.249 -1.556,-0.125 -1.929,0.312 -0.373,0.435 -2.801,0.435 -3.609,0.435 -0.809,0 -0.996,-0.435 -1.37,-0.809 -0.337,-0.339 -0.729,-0.269 -1.126,-0.251 0.035,-0.315 0.096,-0.594 0.176,-0.713 0.187,-0.281 1.075,-1.634 0.84,-2.055 -0.232,-0.42 -0.653,-0.42 -0.933,-0.746 -0.281,-0.327 -1.914,-1.774 -1.96,-2.007 -0.047,-0.233 0.28,-1.261 0.046,-1.448 -0.232,-0.187 -0.934,-1.167 -0.934,-1.539 0,-0.374 0.514,-0.888 0.934,-1.028 0.176,-0.06 0.291,-0.143 0.342,-0.242 0.327,0.045 0.626,0.071 0.811,0.071 0.311,0 1.681,-0.375 2.114,-0.375 0.437,0 1.06,-0.186 1.246,-0.373 0.188,-0.186 0.622,-0.061 0.934,0.25 0.311,0.31 0.685,0.123 1.059,0.123 0.372,0 0.996,0.313 1.182,0.623 0.187,0.31 2.055,0.81 2.551,0.873 0.498,0.06 1.245,-0.934 1.681,-0.934 0.437,0 1.244,-0.312 1.494,-1.121 0.25,-0.81 0.996,-1.806 1.306,-2.115 0.311,-0.313 0.497,-1.121 0.497,-1.37 0,-0.249 -0.683,0.062 -1.431,0.249 -0.745,0.187 -0.809,-0.561 -0.809,-0.934 0,-0.373 -1.057,-1.68 -1.244,-1.93 -0.187,-0.25 0.374,-0.435 0.81,-0.497 0.185,-0.026 0.933,0.497 1.181,0.497 0.102,0 0.411,-0.239 0.742,-0.522 -0.071,0.974 0.131,0.919 1,1.579 0.904,0.685 0.997,1.961 1.805,2.117 0.811,0.156 1.151,0.53 2.335,0.344 1.183,-0.188 -0.591,-0.934 0.216,-1.369 0.811,-0.438 3.301,0.123 3.426,-0.498 0.123,-0.623 -2.865,-1.246 -2.802,-1.558 0.062,-0.309 1.588,-0.622 2.116,-0.963 0.53,-0.344 -0.155,-1.307 0.095,-1.62 0.249,-0.31 1.057,-0.06 1.711,0.405 0.653,0.468 1.181,0.312 2.022,0.871 0.841,0.561 2.583,0.064 2.802,0.405 0.217,0.343 -0.499,0.684 -2.118,0.559 -1.617,-0.123 -1.711,1.402 -1.711,1.714 0,0.31 1.681,1.587 2.644,1.679 0.966,0.094 1.744,0.375 2.677,0.809 0.376,0.175 1.037,0.353 1.712,0.482 C -0.148,-0.559 -0.279,-0.041 0,0"
             style="fill:#F0F0F0;fill-opacity:1;fill-rule:nonzero;stroke:none"
             id="path134"
             inkscape:connector-curvature="0" /></g><g
           id="g136"
           transform="translate(99.1272,31.8851)"><path
             d="M 0,0 C 0.326,0.045 1.307,1.12 1.634,1.12 1.961,1.12 3.36,0.84 3.36,1.072 3.36,1.307 3.828,2.1 3.733,2.334 3.641,2.566 3.174,2.893 3.268,3.127 3.36,3.359 4.014,3.359 4.014,3.641 c 0,0.279 -0.513,0.42 -0.513,0.607 0,0.186 0.653,0.513 0.606,0.886 C 4.061,5.507 3.501,5.555 2.895,5.881 2.287,6.209 1.68,6.068 1.119,6.348 0.561,6.627 -0.607,6.441 -0.607,6.627 c 0,0.186 -0.747,0.794 -0.934,1.121 -0.187,0.326 -0.793,0.141 -1.166,-0.093 -0.375,-0.234 -0.702,-0.327 -1.074,-0.094 -0.373,0.234 -0.7,0.607 -1.027,0.467 -0.328,-0.139 -0.934,-0.047 -0.794,0.421 0.14,0.467 -0.606,1.492 -0.933,1.632 -0.327,0.142 -1.308,-0.092 -1.54,0.374 -0.235,0.468 -0.654,0.841 -0.467,1.167 0.186,0.327 -0.047,1.215 -0.28,1.588 -0.235,0.373 -1.401,0.326 -1.727,0.186 -0.327,-0.139 -1.075,0.14 -1.401,-0.046 -0.327,-0.188 -0.513,-0.513 -0.981,-0.513 -0.259,0 -0.433,0.034 -0.575,0.24 -0.505,-0.227 -1.352,-0.273 -1.352,-0.273 0,0 -1.247,-0.995 -1.247,-1.368 0,-0.373 -0.06,-0.997 -0.374,-0.686 -0.31,0.312 -1.617,0.313 -1.927,0.125 -0.313,-0.187 -0.81,0.747 -1.37,0.436 -0.56,-0.311 -1.307,0.435 -1.37,0.125 -0.062,-0.313 -0.871,-0.063 -1.432,0.186 -0.559,0.249 -1.556,-0.125 -1.929,0.312 -0.373,0.435 -2.801,0.435 -3.609,0.435 -0.809,0 -0.996,-0.435 -1.37,-0.809 -0.337,-0.339 -0.729,-0.269 -1.126,-0.251 0.035,-0.315 0.096,-0.594 0.176,-0.713 0.187,-0.281 1.075,-1.634 0.84,-2.055 -0.232,-0.42 -0.653,-0.42 -0.933,-0.746 -0.281,-0.327 -1.914,-1.774 -1.96,-2.007 -0.047,-0.233 0.28,-1.261 0.046,-1.448 -0.232,-0.187 -0.934,-1.167 -0.934,-1.539 0,-0.374 0.514,-0.888 0.934,-1.028 0.176,-0.06 0.291,-0.143 0.342,-0.242 0.327,0.045 0.626,0.071 0.811,0.071 0.311,0 1.681,-0.375 2.114,-0.375 0.437,0 1.06,-0.186 1.246,-0.373 0.188,-0.186 0.622,-0.061 0.934,0.25 0.311,0.31 0.685,0.123 1.059,0.123 0.372,0 0.996,0.313 1.182,0.623 0.187,0.31 2.055,0.81 2.551,0.873 0.498,0.06 1.245,-0.934 1.681,-0.934 0.437,0 1.244,-0.312 1.494,-1.121 0.25,-0.81 0.996,-1.806 1.306,-2.115 0.311,-0.313 0.497,-1.121 0.497,-1.37 0,-0.249 -0.683,0.062 -1.431,0.249 -0.745,0.187 -0.809,-0.561 -0.809,-0.934 0,-0.373 -1.057,-1.68 -1.244,-1.93 -0.187,-0.25 0.374,-0.435 0.81,-0.497 0.185,-0.026 0.933,0.497 1.181,0.497 0.102,0 0.411,-0.239 0.742,-0.522 -0.071,0.974 0.131,0.919 1,1.579 0.904,0.685 0.997,1.961 1.805,2.117 0.811,0.156 1.151,0.53 2.335,0.344 1.183,-0.188 -0.591,-0.934 0.216,-1.369 0.811,-0.438 3.301,0.123 3.426,-0.498 0.123,-0.623 -2.865,-1.246 -2.802,-1.558 0.062,-0.309 1.588,-0.622 2.116,-0.963 0.53,-0.344 -0.155,-1.307 0.095,-1.62 0.249,-0.31 1.057,-0.06 1.711,0.405 0.653,0.468 1.181,0.312 2.022,0.871 0.841,0.561 2.583,0.064 2.802,0.405 0.217,0.343 -0.499,0.684 -2.118,0.559 -1.617,-0.123 -1.711,1.402 -1.711,1.714 0,0.31 1.681,1.587 2.644,1.679 0.966,0.094 1.744,0.375 2.677,0.809 0.376,0.175 1.037,0.353 1.712,0.482 C -0.148,-0.559 -0.279,-0.041 0,0 Z"
             style="fill:none;stroke:#ffffff;stroke-width:0.25;stroke-linecap:butt;stroke-linejoin:miter;stroke-miterlimit:10;stroke-dasharray:none;stroke-opacity:1"
             id="path138"
             inkscape:connector-curvature="0" /></g><g
           id="g140"
           transform="translate(86.384,49.6224)"><path
             d="m 0,0 c -0.374,0.094 -0.607,0.933 -1.215,1.167 -0.606,0.233 -0.466,0.98 -0.979,1.307 -0.513,0.328 -0.188,0.98 -0.235,1.495 -0.046,0.512 0.095,1.306 -0.185,1.446 -0.282,0.141 -1.448,0.794 -1.96,0.56 -0.515,-0.234 -0.888,-0.419 -1.122,0 C -5.929,6.396 -6.255,6.629 -6.769,6.489 -7.283,6.349 -7.61,6.582 -7.89,6.816 -7.932,6.853 -7.967,6.907 -7.996,6.97 -8.203,6.927 -8.476,6.847 -8.65,6.706 -8.963,6.457 -9.024,5.96 -9.461,5.96 c -0.435,0 -0.933,0.186 -1.431,-0.188 -0.499,-0.373 -0.623,-0.81 -0.56,-1.119 0.061,-0.311 0.125,-0.81 -0.249,-0.81 -0.374,0 -0.311,-0.437 -0.685,-0.561 -0.373,-0.124 -0.996,-0.684 -1.058,-0.994 -0.062,-0.312 -0.062,-0.997 -0.312,-0.997 -0.249,0 -1.119,-0.124 -1.369,-0.436 -0.248,-0.311 -0.558,-0.622 -1.057,-0.498 -0.255,0.065 -0.94,0.095 -1.543,0.11 0.009,-0.062 0.009,-0.122 -0.014,-0.187 -0.233,-0.654 -0.047,-1.259 0.327,-1.587 0.374,-0.326 0.514,-1.633 0.094,-1.821 -0.421,-0.185 -1.214,-0.746 -1.214,-1.073 0,-0.326 0.84,-0.607 0.7,-1.073 -0.079,-0.268 -0.082,-0.743 -0.037,-1.155 0.397,-0.017 0.789,-0.088 1.126,0.251 0.374,0.374 0.561,0.81 1.37,0.81 0.809,0 3.236,0 3.609,-0.436 0.373,-0.436 1.37,-0.062 1.929,-0.311 0.562,-0.249 1.37,-0.499 1.432,-0.187 0.063,0.311 0.81,-0.435 1.37,-0.125 0.56,0.312 1.057,-0.622 1.37,-0.435 0.31,0.187 1.617,0.186 1.928,-0.125 0.313,-0.311 0.373,0.312 0.373,0.685 0,0.373 1.247,1.368 1.247,1.368 0,0 0.847,0.046 1.352,0.274 -0.112,0.161 -0.208,0.427 -0.312,0.879 -0.232,1.028 -0.606,1.634 -0.325,1.961 0.279,0.327 1.073,-0.42 1.492,-0.234 0.421,0.187 1.168,0.561 1.074,0.981 C 1.073,-0.653 0.373,-0.093 0,0"
             style="fill:#F0F0F0;fill-opacity:1;fill-rule:nonzero;stroke:none"
             id="path142"
             inkscape:connector-curvature="0" /></g><g
           id="g144"
           transform="translate(86.384,49.6224)"><path
             d="m 0,0 c -0.374,0.094 -0.607,0.933 -1.215,1.167 -0.606,0.233 -0.466,0.98 -0.979,1.307 -0.513,0.328 -0.188,0.98 -0.235,1.495 -0.046,0.512 0.095,1.306 -0.185,1.446 -0.282,0.141 -1.448,0.794 -1.96,0.56 -0.515,-0.234 -0.888,-0.419 -1.122,0 C -5.929,6.396 -6.255,6.629 -6.769,6.489 -7.283,6.349 -7.61,6.582 -7.89,6.816 -7.932,6.853 -7.967,6.907 -7.996,6.97 -8.203,6.927 -8.476,6.847 -8.65,6.706 -8.963,6.457 -9.024,5.96 -9.461,5.96 c -0.435,0 -0.933,0.186 -1.431,-0.188 -0.499,-0.373 -0.623,-0.81 -0.56,-1.119 0.061,-0.311 0.125,-0.81 -0.249,-0.81 -0.374,0 -0.311,-0.437 -0.685,-0.561 -0.373,-0.124 -0.996,-0.684 -1.058,-0.994 -0.062,-0.312 -0.062,-0.997 -0.312,-0.997 -0.249,0 -1.119,-0.124 -1.369,-0.436 -0.248,-0.311 -0.558,-0.622 -1.057,-0.498 -0.255,0.065 -0.94,0.095 -1.543,0.11 0.009,-0.062 0.009,-0.122 -0.014,-0.187 -0.233,-0.654 -0.047,-1.259 0.327,-1.587 0.374,-0.326 0.514,-1.633 0.094,-1.821 -0.421,-0.185 -1.214,-0.746 -1.214,-1.073 0,-0.326 0.84,-0.607 0.7,-1.073 -0.079,-0.268 -0.082,-0.743 -0.037,-1.155 0.397,-0.017 0.789,-0.088 1.126,0.251 0.374,0.374 0.561,0.81 1.37,0.81 0.809,0 3.236,0 3.609,-0.436 0.373,-0.436 1.37,-0.062 1.929,-0.311 0.562,-0.249 1.37,-0.499 1.432,-0.187 0.063,0.311 0.81,-0.435 1.37,-0.125 0.56,0.312 1.057,-0.622 1.37,-0.435 0.31,0.187 1.617,0.186 1.928,-0.125 0.313,-0.311 0.373,0.312 0.373,0.685 0,0.373 1.247,1.368 1.247,1.368 0,0 0.847,0.046 1.352,0.274 -0.112,0.161 -0.208,0.427 -0.312,0.879 -0.232,1.028 -0.606,1.634 -0.325,1.961 0.279,0.327 1.073,-0.42 1.492,-0.234 0.421,0.187 1.168,0.561 1.074,0.981 C 1.073,-0.653 0.373,-0.093 0,0 Z"
             style="fill:none;stroke:#ffffff;stroke-width:0.25;stroke-linecap:butt;stroke-linejoin:miter;stroke-miterlimit:10;stroke-dasharray:none;stroke-opacity:1"
             id="path146"
             inkscape:connector-curvature="0" /></g><g
           id="g148"
           transform="translate(41.2444,30.2035)"><path
             d="m 0,0 c -0.419,-0.186 -1.073,0.375 -1.073,0.561 0,0.129 -0.086,0.594 0.002,0.884 -0.348,0.178 -0.845,0.42 -1.216,0.531 C -2.91,2.162 -3.22,2.162 -3.717,1.914 -4.035,1.756 -4.912,1.8 -5.503,1.852 -5.556,1.666 -5.639,1.541 -5.788,1.541 c -0.42,0 -0.98,-0.42 -1.073,-0.888 -0.093,-0.466 -1.074,-0.839 -1.355,-1.679 -0.279,-0.841 -0.139,-1.214 0.281,-0.701 0.42,0.514 0.934,0.327 0.934,-0.093 0,-0.42 0.56,-0.466 0.373,-1.028 -0.003,-0.012 -0.003,-0.019 -0.005,-0.033 0.638,0.057 1.525,0.127 1.795,0.127 0.436,0 0.871,1.369 1.057,1.494 0.186,0.124 0.686,-0.996 1.184,-1.433 0.497,-0.436 0.56,0.375 0.56,0.748 0,0.374 0.436,0.498 0.747,0.435 0.311,-0.061 0.996,-0.186 0.996,0.25 0,0.434 0.374,0.248 0.621,0.248 0.25,0 0.313,0.498 0.313,0.498 l 0.407,0.379 C 0.716,0.033 0.33,0.146 0,0"
             style="fill:#F0F0F0;fill-opacity:1;fill-rule:nonzero;stroke:none"
             id="path150"
             inkscape:connector-curvature="0" /></g><g
           id="g152"
           transform="translate(41.2444,30.2035)"><path
             d="m 0,0 c -0.419,-0.186 -1.073,0.375 -1.073,0.561 0,0.129 -0.086,0.594 0.002,0.884 -0.348,0.178 -0.845,0.42 -1.216,0.531 C -2.91,2.162 -3.22,2.162 -3.717,1.914 -4.035,1.756 -4.912,1.8 -5.503,1.852 -5.556,1.666 -5.639,1.541 -5.788,1.541 c -0.42,0 -0.98,-0.42 -1.073,-0.888 -0.093,-0.466 -1.074,-0.839 -1.355,-1.679 -0.279,-0.841 -0.139,-1.214 0.281,-0.701 0.42,0.514 0.934,0.327 0.934,-0.093 0,-0.42 0.56,-0.466 0.373,-1.028 -0.003,-0.012 -0.003,-0.019 -0.005,-0.033 0.638,0.057 1.525,0.127 1.795,0.127 0.436,0 0.871,1.369 1.057,1.494 0.186,0.124 0.686,-0.996 1.184,-1.433 0.497,-0.436 0.56,0.375 0.56,0.748 0,0.374 0.436,0.498 0.747,0.435 0.311,-0.061 0.996,-0.186 0.996,0.25 0,0.434 0.374,0.248 0.621,0.248 0.25,0 0.313,0.498 0.313,0.498 l 0.407,0.379 C 0.716,0.033 0.33,0.146 0,0 Z"
             style="fill:none;stroke:#ffffff;stroke-width:0.25;stroke-linecap:butt;stroke-linejoin:miter;stroke-miterlimit:10;stroke-dasharray:none;stroke-opacity:1"
             id="path154"
             inkscape:connector-curvature="0" /></g><g
           id="g156"
           transform="translate(34.9753,46.929)"><path
             d="m 0,0 c -0.499,-0.745 -1.182,-0.808 -1.06,-0.993 0.126,-0.188 0.874,-0.811 0.686,-1.121 C -0.561,-2.427 -0.81,-2.24 -0.81,-2.8 c 0,-0.559 -0.872,-0.559 -1.182,-0.559 -0.312,0 0.061,-0.562 -0.125,-0.996 -0.187,-0.436 -0.187,-1.307 -0.249,-1.681 -0.061,-0.373 0.623,-0.996 0.56,-1.307 -0.061,-0.312 -0.56,-0.56 -0.434,-0.808 0.115,-0.238 0.565,-0.594 0.665,-1.745 0.215,-0.062 0.391,-0.143 0.469,-0.248 0.281,-0.373 0.747,-0.652 1.353,-0.652 0.607,0 0.841,-0.422 1.121,-0.374 0.28,0.046 1.028,-0.188 0.421,-0.701 -0.607,-0.513 -0.701,-1.12 -0.84,-1.727 -0.091,-0.393 -0.086,-0.938 -0.183,-1.276 0.591,-0.052 1.468,-0.096 1.786,0.062 0.497,0.249 0.807,0.249 1.43,0.062 0.371,-0.11 0.868,-0.353 1.216,-0.53 0.038,0.125 0.104,0.22 0.231,0.236 0.421,0.045 0.934,-0.794 1.215,-0.326 0.28,0.466 0.933,0.371 1.259,0.185 0.327,-0.185 0.841,-0.28 1.215,0.094 0.373,0.373 1.82,0.56 2.147,0.42 0.327,-0.141 1.166,-0.514 0.84,0.608 -0.327,1.119 0.699,0.885 0.84,1.306 0.139,0.42 1.353,0.606 1.167,0.933 -0.187,0.327 -1.727,1.307 -2.194,1.634 -0.466,0.327 -0.466,1.355 -0.701,1.773 -0.232,0.421 -0.747,0.98 -0.139,1.121 0.606,0.141 1.68,0.373 2.194,0.84 0.513,0.468 1.446,0.514 1.727,0.794 0.28,0.28 0.933,-0.234 1.12,0.048 0.187,0.279 0.326,0.84 0.048,1.166 -0.281,0.327 -0.468,0.886 -0.514,1.679 -0.047,0.793 -0.28,0.748 -0.28,1.122 0,0.373 -0.14,0.839 -0.467,1.027 -0.326,0.185 -0.467,0.326 -0.141,0.839 0.327,0.514 0.187,1.821 0.046,2.194 -0.027,0.074 -0.024,0.162 -0.009,0.256 -0.084,0.039 -0.15,0.121 -0.177,0.258 -0.093,0.498 -0.434,0.684 -1.244,0.684 -0.809,0 0.497,0.81 0.186,1.214 C 13.257,5.229 12.447,4.079 11.702,4.328 10.954,4.575 9.99,3.455 9.336,2.958 8.682,2.459 7.749,3.051 8.247,3.768 8.744,4.482 8.247,4.421 7.499,4.14 6.752,3.86 5.85,4.202 5.943,4.888 5.967,5.06 5.912,5.221 5.82,5.372 5.456,5.321 5.175,5.31 5.042,5.354 4.707,5.465 3.948,5.525 3.12,5.542 3.368,5.18 3.636,4.825 3.484,4.545 3.205,4.015 3.642,3.517 4.044,2.74 4.449,1.961 3.174,2.397 3.143,1.899 3.111,1.401 1.961,1.931 1.586,2.118 1.214,2.304 -0.032,2.18 0,1.868 0.012,1.744 -0.007,1.573 -0.062,1.427 0.105,0.827 0.18,0.272 0,0"
             style="fill:#F0F0F0;fill-opacity:1;fill-rule:nonzero;stroke:none"
             id="path158"
             inkscape:connector-curvature="0" /></g><g
           id="g160"
           transform="translate(34.9753,46.929)"><path
             d="m 0,0 c -0.499,-0.745 -1.182,-0.808 -1.06,-0.993 0.126,-0.188 0.874,-0.811 0.686,-1.121 C -0.561,-2.427 -0.81,-2.24 -0.81,-2.8 c 0,-0.559 -0.872,-0.559 -1.182,-0.559 -0.312,0 0.061,-0.562 -0.125,-0.996 -0.187,-0.436 -0.187,-1.307 -0.249,-1.681 -0.061,-0.373 0.623,-0.996 0.56,-1.307 -0.061,-0.312 -0.56,-0.56 -0.434,-0.808 0.115,-0.238 0.565,-0.594 0.665,-1.745 0.215,-0.062 0.391,-0.143 0.469,-0.248 0.281,-0.373 0.747,-0.652 1.353,-0.652 0.607,0 0.841,-0.422 1.121,-0.374 0.28,0.046 1.028,-0.188 0.421,-0.701 -0.607,-0.513 -0.701,-1.12 -0.84,-1.727 -0.091,-0.393 -0.086,-0.938 -0.183,-1.276 0.591,-0.052 1.468,-0.096 1.786,0.062 0.497,0.249 0.807,0.249 1.43,0.062 0.371,-0.11 0.868,-0.353 1.216,-0.53 0.038,0.125 0.104,0.22 0.231,0.236 0.421,0.045 0.934,-0.794 1.215,-0.326 0.28,0.466 0.933,0.371 1.259,0.185 0.327,-0.185 0.841,-0.28 1.215,0.094 0.373,0.373 1.82,0.56 2.147,0.42 0.327,-0.141 1.166,-0.514 0.84,0.608 -0.327,1.119 0.699,0.885 0.84,1.306 0.139,0.42 1.353,0.606 1.167,0.933 -0.187,0.327 -1.727,1.307 -2.194,1.634 -0.466,0.327 -0.466,1.355 -0.701,1.773 -0.232,0.421 -0.747,0.98 -0.139,1.121 0.606,0.141 1.68,0.373 2.194,0.84 0.513,0.468 1.446,0.514 1.727,0.794 0.28,0.28 0.933,-0.234 1.12,0.048 0.187,0.279 0.326,0.84 0.048,1.166 -0.281,0.327 -0.468,0.886 -0.514,1.679 -0.047,0.793 -0.28,0.748 -0.28,1.122 0,0.373 -0.14,0.839 -0.467,1.027 -0.326,0.185 -0.467,0.326 -0.141,0.839 0.327,0.514 0.187,1.821 0.046,2.194 -0.027,0.074 -0.024,0.162 -0.009,0.256 -0.084,0.039 -0.15,0.121 -0.177,0.258 -0.093,0.498 -0.434,0.684 -1.244,0.684 -0.809,0 0.497,0.81 0.186,1.214 C 13.257,5.229 12.447,4.079 11.702,4.328 10.954,4.575 9.99,3.455 9.336,2.958 8.682,2.459 7.749,3.051 8.247,3.768 8.744,4.482 8.247,4.421 7.499,4.14 6.752,3.86 5.85,4.202 5.943,4.888 5.967,5.06 5.912,5.221 5.82,5.372 5.456,5.321 5.175,5.31 5.042,5.354 4.707,5.465 3.948,5.525 3.12,5.542 3.368,5.18 3.636,4.825 3.484,4.545 3.205,4.015 3.642,3.517 4.044,2.74 4.449,1.961 3.174,2.397 3.143,1.899 3.111,1.401 1.961,1.931 1.586,2.118 1.214,2.304 -0.032,2.18 0,1.868 0.012,1.744 -0.007,1.573 -0.062,1.427 0.105,0.827 0.18,0.272 0,0 Z"
             style="fill:none;stroke:#ffffff;stroke-width:0.25;stroke-linecap:butt;stroke-linejoin:miter;stroke-miterlimit:10;stroke-dasharray:none;stroke-opacity:1"
             id="path162"
             inkscape:connector-curvature="0" /></g><g
           id="g164"
           transform="translate(39.6741,19.9183)"><path
             d="M 0,0 C -0.343,0.031 -0.437,-0.59 -1.307,-1.121 -2.178,-1.65 -1.3,-4.039 -0.437,-3.921 0.466,-3.797 0.342,-0.031 0,0 m -3.331,15.841 c -0.28,-0.048 -0.513,0.374 -1.121,0.374 -0.606,0 -1.072,0.279 -1.353,0.652 -0.28,0.375 -1.726,0.467 -2.193,0.375 -0.467,-0.095 -0.607,0.793 -1.075,0.699 -0.466,-0.093 -0.606,0.608 -0.606,0.981 0,0.373 -0.513,-0.28 -0.933,-0.468 -0.421,-0.186 -0.561,0.421 -0.608,0.7 -0.047,0.281 -0.886,0.561 -1.306,0.794 -0.42,0.234 -0.887,0.981 -1.074,0.654 -0.186,-0.327 -0.7,0.466 -0.746,0.794 -0.031,0.216 -0.177,0.148 -0.272,0.278 -0.16,-0.033 -0.318,-0.053 -0.476,-0.045 -0.747,0.031 -1.4,-0.561 -1.275,-1.807 0.124,-1.243 -0.903,-1.368 -2.179,-1.461 -1.276,-0.093 -0.84,-1.09 -1.369,-1.494 -0.529,-0.406 -2.396,0.217 -2.645,0.901 -0.25,0.684 -1.929,0 -1.214,-0.807 0.717,-0.811 0.684,-1.931 0.28,-2.241 -0.404,-0.312 -1.277,0.497 -1.837,0.093 -0.56,-0.405 -0.591,0.374 -1.274,0.621 -0.685,0.251 -0.966,-0.309 -2.054,-0.217 -1.091,0.095 -1.713,-0.528 -1.308,-0.995 0.404,-0.466 -0.062,-0.902 0.249,-1.308 0.312,-0.404 1.743,-0.341 2.8,-0.902 1.059,-0.559 1.307,-0.092 1.837,-0.498 0.529,-0.405 0.654,-0.155 0.685,-0.934 0.031,-0.777 0.622,-1.523 1.649,-1.805 1.027,-0.28 0.249,-0.964 0.561,-1.649 0.31,-0.685 -0.467,-1.68 -0.312,-2.521 0.156,-0.839 -0.498,-3.546 -0.996,-3.795 -0.031,-0.017 -0.083,-0.017 -0.124,-0.025 0.467,-0.232 0.957,-0.435 1.197,-0.594 0.455,-0.304 1.437,-0.605 2.045,-0.984 0.605,-0.38 1.665,-0.305 1.665,0.152 0,0.453 0.605,0.149 0.984,-0.228 0.379,-0.379 1.818,-0.455 2.5,-0.606 0.574,-0.127 1.412,-0.046 2.162,-0.062 -0.03,0.17 -0.068,0.347 -0.127,0.54 -0.373,1.215 0.715,1.931 1.741,2.087 1.027,0.154 3.268,-0.467 3.861,-0.84 0.59,-0.374 1.4,-0.281 2.427,0.809 0.517,0.55 0.942,0.75 1.318,0.858 0.027,0.244 0.154,0.493 0.236,0.712 0.141,0.375 -0.513,0.281 -0.979,0.328 -0.468,0.047 -0.794,0.514 -0.468,1.027 0.328,0.514 -0.279,0.561 -0.606,1.074 -0.327,0.512 0.14,0.373 0.419,0.512 0.28,0.141 0.655,0.701 0.42,0.84 -0.233,0.141 -0.42,0.467 -0.233,1.027 0.187,0.562 -0.373,0.608 -0.373,1.028 0,0.42 -0.513,0.607 -0.933,0.094 -0.421,-0.514 -0.561,-0.141 -0.282,0.7 0.282,0.841 1.262,1.214 1.355,1.679 0.093,0.468 0.653,0.888 1.074,0.888 0.42,0 0.326,0.981 0.467,1.587 0.139,0.607 0.233,1.214 0.84,1.727 0.607,0.512 -0.141,0.747 -0.421,0.701"
             style="fill:#F0F0F0;fill-opacity:1;fill-rule:nonzero;stroke:none"
             id="path166"
             inkscape:connector-curvature="0" /></g><g
           id="g168"
           transform="translate(39.6741,19.9183)"><path
             d="M 0,0 C -0.343,0.031 -0.437,-0.59 -1.307,-1.121 -2.178,-1.65 -1.3,-4.039 -0.437,-3.921 0.466,-3.797 0.342,-0.031 0,0 Z m -3.331,15.841 c -0.28,-0.048 -0.513,0.374 -1.121,0.374 -0.606,0 -1.072,0.279 -1.353,0.652 -0.28,0.375 -1.726,0.467 -2.193,0.375 -0.467,-0.095 -0.607,0.793 -1.075,0.699 -0.466,-0.093 -0.606,0.608 -0.606,0.981 0,0.373 -0.513,-0.28 -0.933,-0.468 -0.421,-0.186 -0.561,0.421 -0.608,0.7 -0.047,0.281 -0.886,0.561 -1.306,0.794 -0.42,0.234 -0.887,0.981 -1.074,0.654 -0.186,-0.327 -0.7,0.466 -0.746,0.794 -0.031,0.216 -0.177,0.148 -0.272,0.278 -0.16,-0.033 -0.318,-0.053 -0.476,-0.045 -0.747,0.031 -1.4,-0.561 -1.275,-1.807 0.124,-1.243 -0.903,-1.368 -2.179,-1.461 -1.276,-0.093 -0.84,-1.09 -1.369,-1.494 -0.529,-0.406 -2.396,0.217 -2.645,0.901 -0.25,0.684 -1.929,0 -1.214,-0.807 0.717,-0.811 0.684,-1.931 0.28,-2.241 -0.404,-0.312 -1.277,0.497 -1.837,0.093 -0.56,-0.405 -0.591,0.374 -1.274,0.621 -0.685,0.251 -0.966,-0.309 -2.054,-0.217 -1.091,0.095 -1.713,-0.528 -1.308,-0.995 0.404,-0.466 -0.062,-0.902 0.249,-1.308 0.312,-0.404 1.743,-0.341 2.8,-0.902 1.059,-0.559 1.307,-0.092 1.837,-0.498 0.529,-0.405 0.654,-0.155 0.685,-0.934 0.031,-0.777 0.622,-1.523 1.649,-1.805 1.027,-0.28 0.249,-0.964 0.561,-1.649 0.31,-0.685 -0.467,-1.68 -0.312,-2.521 0.156,-0.839 -0.498,-3.546 -0.996,-3.795 -0.031,-0.017 -0.083,-0.017 -0.124,-0.025 0.467,-0.232 0.957,-0.435 1.197,-0.594 0.455,-0.304 1.437,-0.605 2.045,-0.984 0.605,-0.38 1.665,-0.305 1.665,0.152 0,0.453 0.605,0.149 0.984,-0.228 0.379,-0.379 1.818,-0.455 2.5,-0.606 0.574,-0.127 1.412,-0.046 2.162,-0.062 -0.03,0.17 -0.068,0.347 -0.127,0.54 -0.373,1.215 0.715,1.931 1.741,2.087 1.027,0.154 3.268,-0.467 3.861,-0.84 0.59,-0.374 1.4,-0.281 2.427,0.809 0.517,0.55 0.942,0.75 1.318,0.858 0.027,0.244 0.154,0.493 0.236,0.712 0.141,0.375 -0.513,0.281 -0.979,0.328 -0.468,0.047 -0.794,0.514 -0.468,1.027 0.328,0.514 -0.279,0.561 -0.606,1.074 -0.327,0.512 0.14,0.373 0.419,0.512 0.28,0.141 0.655,0.701 0.42,0.84 -0.233,0.141 -0.42,0.467 -0.233,1.027 0.187,0.562 -0.373,0.608 -0.373,1.028 0,0.42 -0.513,0.607 -0.933,0.094 -0.421,-0.514 -0.561,-0.141 -0.282,0.7 0.282,0.841 1.262,1.214 1.355,1.679 0.093,0.468 0.653,0.888 1.074,0.888 0.42,0 0.326,0.981 0.467,1.587 0.139,0.607 0.233,1.214 0.84,1.727 0.607,0.512 -0.141,0.747 -0.421,0.701 z"
             style="fill:none;stroke:#ffffff;stroke-width:0.25;stroke-linecap:butt;stroke-linejoin:miter;stroke-miterlimit:10;stroke-dasharray:none;stroke-opacity:1"
             id="path170"
             inkscape:connector-curvature="0" /></g><g
           id="g172"
           transform="translate(26.7898,11.5785)"><path
             d="M 0,0 C -0.155,1.059 -2.294,-0.316 -1.836,-0.623 -0.902,-1.245 0.155,-1.059 0,0 m -0.183,6.803 c -0.75,0.015 -1.588,-0.065 -2.162,0.062 -0.681,0.151 -2.121,0.227 -2.499,0.606 -0.38,0.377 -0.985,0.68 -0.985,0.228 0,-0.457 -1.06,-0.532 -1.665,-0.152 -0.608,0.379 -1.59,0.68 -2.045,0.984 -0.239,0.158 -0.73,0.362 -1.196,0.594 -0.632,-0.123 -2.446,0.544 -3.642,0.397 -1.276,-0.155 -5.353,0.188 -6.94,0.062 -1.587,-0.123 -1.681,0.653 -2.552,0.653 -0.871,0 -0.497,-1.055 -1.742,-1.088 -1.245,-0.032 -1.368,-0.809 -0.468,-1.526 0.515,-0.408 0.453,-1.268 0.38,-2.057 0.258,0.033 0.449,0.104 0.56,0.239 0.378,0.453 0.757,0.38 0.757,-0.076 0,-0.456 0.833,-0.304 1.288,-0.304 0.454,0 0.302,-0.38 0.833,0 0.529,0.38 1.287,0.227 1.287,-0.228 0,-0.453 1.135,-0.225 0.53,-0.832 -0.606,-0.605 -1.364,-0.758 -1.364,-1.211 0,-0.455 0.682,-1.437 0.151,-1.968 -0.528,-0.531 0.153,-1.44 -0.376,-1.44 -0.531,0 -1.137,-0.226 -0.531,-0.832 0.606,-0.607 1.06,-1.137 0.606,-1.137 -0.455,0 -0.758,-0.909 -0.531,-1.136 0.228,-0.227 1.288,-0.909 0.456,-1.06 -0.834,-0.151 -0.834,-0.832 -0.834,-1.287 0,-0.169 0.135,-0.425 0.305,-0.685 0.387,0.069 0.769,0.08 1.12,-0.084 0.871,-0.403 1.376,-2.572 2.552,-2.425 0.499,0.062 0.249,0.435 0.499,0.685 0.249,0.248 0.715,0.061 1.214,0.061 0.496,0 0.747,0.717 1.928,0.747 1.183,0.03 1.93,0.126 2.676,0.094 0.748,-0.031 1.339,0.218 1.525,0.747 0.186,0.529 0.81,0.995 1.65,1.12 0.84,0.124 0.716,0.997 0.777,1.493 0.063,0.498 1.464,1.246 1.556,1.619 0.094,0.374 -0.81,1.805 0.031,3.081 0.84,1.275 1.744,1.337 1.744,2.054 0,0.656 0.87,0.901 1.929,1.028 1.059,0.122 1.401,0.839 2.304,1.212 0.756,0.314 1.026,0.873 0.874,1.762"
             style="fill:#F0F0F0;fill-opacity:1;fill-rule:nonzero;stroke:none"
             id="path174"
             inkscape:connector-curvature="0" /></g><g
           id="g176"
           transform="translate(26.7898,11.5785)"><path
             d="M 0,0 C -0.155,1.059 -2.294,-0.316 -1.836,-0.623 -0.902,-1.245 0.155,-1.059 0,0 Z m -0.183,6.803 c -0.75,0.015 -1.588,-0.065 -2.162,0.062 -0.681,0.151 -2.121,0.227 -2.499,0.606 -0.38,0.377 -0.985,0.68 -0.985,0.228 0,-0.457 -1.06,-0.532 -1.665,-0.152 -0.608,0.379 -1.59,0.68 -2.045,0.984 -0.239,0.158 -0.73,0.362 -1.196,0.594 -0.632,-0.123 -2.446,0.544 -3.642,0.397 -1.276,-0.155 -5.353,0.188 -6.94,0.062 -1.587,-0.123 -1.681,0.653 -2.552,0.653 -0.871,0 -0.497,-1.055 -1.742,-1.088 -1.245,-0.032 -1.368,-0.809 -0.468,-1.526 0.515,-0.408 0.453,-1.268 0.38,-2.057 0.258,0.033 0.449,0.104 0.56,0.239 0.378,0.453 0.757,0.38 0.757,-0.076 0,-0.456 0.833,-0.304 1.288,-0.304 0.454,0 0.302,-0.38 0.833,0 0.529,0.38 1.287,0.227 1.287,-0.228 0,-0.453 1.135,-0.225 0.53,-0.832 -0.606,-0.605 -1.364,-0.758 -1.364,-1.211 0,-0.455 0.682,-1.437 0.151,-1.968 -0.528,-0.531 0.153,-1.44 -0.376,-1.44 -0.531,0 -1.137,-0.226 -0.531,-0.832 0.606,-0.607 1.06,-1.137 0.606,-1.137 -0.455,0 -0.758,-0.909 -0.531,-1.136 0.228,-0.227 1.288,-0.909 0.456,-1.06 -0.834,-0.151 -0.834,-0.832 -0.834,-1.287 0,-0.169 0.135,-0.425 0.305,-0.685 0.387,0.069 0.769,0.08 1.12,-0.084 0.871,-0.403 1.376,-2.572 2.552,-2.425 0.499,0.062 0.249,0.435 0.499,0.685 0.249,0.248 0.715,0.061 1.214,0.061 0.496,0 0.747,0.717 1.928,0.747 1.183,0.03 1.93,0.126 2.676,0.094 0.748,-0.031 1.339,0.218 1.525,0.747 0.186,0.529 0.81,0.995 1.65,1.12 0.84,0.124 0.716,0.997 0.777,1.493 0.063,0.498 1.464,1.246 1.556,1.619 0.094,0.374 -0.81,1.805 0.031,3.081 0.84,1.275 1.744,1.337 1.744,2.054 0,0.656 0.87,0.901 1.929,1.028 1.059,0.122 1.401,0.839 2.304,1.212 0.756,0.314 1.026,0.873 0.874,1.762 z"
             style="fill:none;stroke:#ffffff;stroke-width:0.25;stroke-linecap:butt;stroke-linejoin:miter;stroke-miterlimit:10;stroke-dasharray:none;stroke-opacity:1"
             id="path178"
             inkscape:connector-curvature="0" /></g><g
           id="g180"
           transform="translate(46.9202,26.6859)"><path
             d="m 0,0 c 0.502,0.202 1.067,0.283 1.344,0.172 0.243,-0.098 0.322,-0.354 0.366,-0.627 0.43,0.062 1.217,0.184 1.483,0.286 0.375,0.14 1.214,-0.327 1.307,-0.048 0.094,0.281 0.374,0.934 0.747,0.934 0.374,0 0.14,0.98 0.514,1.028 0.373,0.046 1.306,0.886 1.306,0.886 0,0 -0.373,0.746 -0.512,0.794 C 6.414,3.472 5.947,2.959 5.106,2.959 4.268,2.959 3.661,2.305 3.288,2.305 2.914,2.305 1.747,2.678 0.954,2.725 0.674,2.74 0.382,2.764 0.11,2.792 0.033,2.086 -0.052,0.998 0,0"
             style="fill:#F0F0F0;fill-opacity:1;fill-rule:nonzero;stroke:none"
             id="path182"
             inkscape:connector-curvature="0" /></g><g
           id="g184"
           transform="translate(46.9202,26.6859)"><path
             d="m 0,0 c 0.502,0.202 1.067,0.283 1.344,0.172 0.243,-0.098 0.322,-0.354 0.366,-0.627 0.43,0.062 1.217,0.184 1.483,0.286 0.375,0.14 1.214,-0.327 1.307,-0.048 0.094,0.281 0.374,0.934 0.747,0.934 0.374,0 0.14,0.98 0.514,1.028 0.373,0.046 1.306,0.886 1.306,0.886 0,0 -0.373,0.746 -0.512,0.794 C 6.414,3.472 5.947,2.959 5.106,2.959 4.268,2.959 3.661,2.305 3.288,2.305 2.914,2.305 1.747,2.678 0.954,2.725 0.674,2.74 0.382,2.764 0.11,2.792 0.033,2.086 -0.052,0.998 0,0 Z"
             style="fill:none;stroke:#ffffff;stroke-width:0.25;stroke-linecap:butt;stroke-linejoin:miter;stroke-miterlimit:10;stroke-dasharray:none;stroke-opacity:1"
             id="path186"
             inkscape:connector-curvature="0" /></g><g
           id="g188"
           transform="translate(72.8782,1.0902)"><path
             d="m 0,0 c -0.499,0.279 -2.739,-0.187 -3.329,0.373 -0.592,0.561 -1.799,-0.441 -1.277,-0.528 0.746,-0.124 1.867,-0.779 3.081,-0.809 1.213,-0.032 2.862,0.56 2.833,0.871 C 1.275,0.219 0.498,-0.279 0,0 M 1.758,15.703 C 1.29,15.654 0.642,15.48 0.747,15.218 0.871,14.907 0.435,14.721 -0.062,14.721 c 0,0 -1.744,0.123 -2.242,0.373 -0.377,0.187 -2.04,0.092 -2.824,0.033 -0.004,-0.031 -0.015,-0.063 -0.039,-0.096 -0.187,-0.279 -1.681,-1.041 -1.961,-0.901 -0.279,0.14 -0.42,-0.468 -0.979,-0.607 -0.561,-0.14 -1.401,0.047 -1.447,-0.187 -0.048,-0.233 -0.421,-0.887 -0.747,-1.213 -0.327,-0.327 -0.047,-0.701 -0.513,-0.793 -0.308,-0.064 -0.436,-0.635 -0.606,-1.137 0.03,-0.015 0.059,-0.037 0.092,-0.047 0.683,-0.217 1.213,-1.028 1.12,-1.804 -0.093,-0.78 0.996,-1.061 1.494,-0.498 0.497,0.558 1.899,-0.313 1.899,-0.686 0,-0.373 -1.432,0.404 -2.243,-0.187 -0.807,-0.59 0.623,-1.151 0.438,-1.774 -0.189,-0.623 0.373,-1.492 1.089,-1.463 0.717,0.031 1.524,-1.151 1.96,-0.932 0.436,0.217 -0.529,1.866 -0.373,2.115 0.156,0.249 1.026,-0.436 1.462,0.063 0.436,0.498 -0.311,0.871 -0.964,0.84 -0.654,-0.031 -0.032,0.871 0.747,0.405 0.777,-0.466 1.151,0.124 1.523,0.187 0.373,0.063 0.467,1.4 -0.684,1.711 -1.15,0.311 -0.995,-0.842 -1.744,-0.06 -0.746,0.775 0.686,0.465 0.686,1.119 0,0.653 -1.151,1.587 -1.712,2.365 -0.559,0.776 0.779,1.15 1.089,0.59 0.312,-0.56 1.151,-0.467 1.681,-0.248 0.531,0.216 -0.56,1.214 0.404,1.587 0.966,0.374 0.966,-0.281 1.277,-0.406 0.311,-0.123 0.591,0.78 1.586,0.78 0.519,0 0.978,-0.344 1.422,-0.676 0.271,0.298 0.492,0.47 0.492,0.722 0,0.327 0.608,0.467 0.608,0.981 0,0.246 -0.097,0.557 -0.171,0.826"
             style="fill:#F0F0F0;fill-opacity:1;fill-rule:nonzero;stroke:none"
             id="path190"
             inkscape:connector-curvature="0" /></g><g
           id="g192"
           transform="translate(72.8782,1.0902)"><path
             d="m 0,0 c -0.499,0.279 -2.739,-0.187 -3.329,0.373 -0.592,0.561 -1.799,-0.441 -1.277,-0.528 0.746,-0.124 1.867,-0.779 3.081,-0.809 1.213,-0.032 2.862,0.56 2.833,0.871 C 1.275,0.219 0.498,-0.279 0,0 Z M 1.758,15.703 C 1.29,15.654 0.642,15.48 0.747,15.218 0.871,14.907 0.435,14.721 -0.062,14.721 c 0,0 -1.744,0.123 -2.242,0.373 -0.377,0.187 -2.04,0.092 -2.824,0.033 -0.004,-0.031 -0.015,-0.063 -0.039,-0.096 -0.187,-0.279 -1.681,-1.041 -1.961,-0.901 -0.279,0.14 -0.42,-0.468 -0.979,-0.607 -0.561,-0.14 -1.401,0.047 -1.447,-0.187 -0.048,-0.233 -0.421,-0.887 -0.747,-1.213 -0.327,-0.327 -0.047,-0.701 -0.513,-0.793 -0.308,-0.064 -0.436,-0.635 -0.606,-1.137 0.03,-0.015 0.059,-0.037 0.092,-0.047 0.683,-0.217 1.213,-1.028 1.12,-1.804 -0.093,-0.78 0.996,-1.061 1.494,-0.498 0.497,0.558 1.899,-0.313 1.899,-0.686 0,-0.373 -1.432,0.404 -2.243,-0.187 -0.807,-0.59 0.623,-1.151 0.438,-1.774 -0.189,-0.623 0.373,-1.492 1.089,-1.463 0.717,0.031 1.524,-1.151 1.96,-0.932 0.436,0.217 -0.529,1.866 -0.373,2.115 0.156,0.249 1.026,-0.436 1.462,0.063 0.436,0.498 -0.311,0.871 -0.964,0.84 -0.654,-0.031 -0.032,0.871 0.747,0.405 0.777,-0.466 1.151,0.124 1.523,0.187 0.373,0.063 0.467,1.4 -0.684,1.711 -1.15,0.311 -0.995,-0.842 -1.744,-0.06 -0.746,0.775 0.686,0.465 0.686,1.119 0,0.653 -1.151,1.587 -1.712,2.365 -0.559,0.776 0.779,1.15 1.089,0.59 0.312,-0.56 1.151,-0.467 1.681,-0.248 0.531,0.216 -0.56,1.214 0.404,1.587 0.966,0.374 0.966,-0.281 1.277,-0.406 0.311,-0.123 0.591,0.78 1.586,0.78 0.519,0 0.978,-0.344 1.422,-0.676 0.271,0.298 0.492,0.47 0.492,0.722 0,0.327 0.608,0.467 0.608,0.981 0,0.246 -0.097,0.557 -0.171,0.826 z"
             style="fill:none;stroke:#ffffff;stroke-width:0.25;stroke-linecap:butt;stroke-linejoin:miter;stroke-miterlimit:10;stroke-dasharray:none;stroke-opacity:1"
             id="path194"
             inkscape:connector-curvature="0" /></g><g
           id="g196"
           transform="translate(53.7395,15.7484)"><path
             d="m 0,0 c -0.809,0.496 -0.28,1.307 -1.556,1.246 -1.276,-0.064 -2.8,1.524 -3.267,3.36 -0.467,1.834 -2.457,1.929 -2.956,3.019 -0.498,1.09 0.467,1.213 0.032,2.115 -0.243,0.502 0.294,0.947 0.928,1.198 -0.052,0.998 0.033,2.085 0.11,2.791 -0.494,0.051 -0.919,0.123 -1.07,0.212 -0.235,0.141 -0.281,0.889 -0.421,0.889 -0.14,0 -1.446,0 -1.681,-0.234 -0.233,-0.234 -0.933,-0.655 -1.307,-0.42 -0.08,0.049 -0.169,0.099 -0.26,0.144 l -0.407,-0.379 c 0,0 -0.063,-0.498 -0.313,-0.498 -0.247,0 -0.622,0.186 -0.622,-0.248 0,-0.436 -0.685,-0.311 -0.995,-0.25 -0.311,0.063 -0.747,-0.061 -0.747,-0.435 0,-0.373 -0.063,-1.184 -0.56,-0.748 -0.498,0.437 -0.998,1.557 -1.184,1.433 -0.186,-0.125 -0.621,-1.494 -1.057,-1.494 -0.27,0 -1.157,-0.07 -1.795,-0.127 -0.168,-0.536 0.011,-0.855 0.238,-0.994 0.234,-0.139 -0.14,-0.699 -0.42,-0.84 -0.279,-0.139 -0.747,0 -0.419,-0.512 0.327,-0.513 0.933,-0.56 0.606,-1.074 -0.326,-0.513 0,-0.98 0.467,-1.027 0.467,-0.047 1.121,0.047 0.98,-0.328 -0.082,-0.219 -0.209,-0.468 -0.237,-0.712 0.368,0.106 0.692,0.124 1.016,0.294 0.654,0.34 0.374,0.932 1.461,1.244 1.09,0.311 2.522,-0.592 2.957,-1.244 0.436,-0.654 0.561,-0.717 0.654,-1.247 0.094,-0.528 0.498,-1.587 1.991,-2.551 1.494,-0.966 2.087,-2.054 2.863,-2.458 0.779,-0.406 1.557,-0.312 2.024,-0.872 0.467,-0.56 1.089,-0.871 1.836,-1.214 0.746,-0.344 0.777,-1.15 1.493,-1.245 0.715,-0.093 0.249,-0.716 0.684,-1.244 0.435,-0.529 0.561,-1.65 0.094,-2.273 -0.467,-0.623 -0.219,-1.679 0.094,-1.679 0.31,0 0.964,1.12 1.058,1.742 0.091,0.623 0.715,0.59 1.212,1.245 0.498,0.653 -0.746,0.81 -0.962,1.649 -0.219,0.841 0.933,1.588 2.021,0.904 C 3.671,-3.547 4.108,-4.015 4.169,-2.957 4.232,-1.899 0.809,-0.498 0,0 m -15.249,-0.996 c -0.683,-0.592 -1.248,0.103 -1.523,-0.373 -0.344,-0.592 1.057,-1.493 0.776,-2.707 -0.28,-1.213 0.156,-2.738 0.871,-2.024 0.716,0.715 1.06,0.373 1.463,0.904 0.404,0.527 0.063,2.488 0.343,3.422 0.28,0.933 -1.245,1.37 -1.93,0.778 m 12.044,-7.065 c -1.277,-0.279 -1.805,-0.373 -2.551,0 -0.748,0.374 -1.957,-0.339 -1.774,-0.838 0.124,-0.344 0.623,-0.779 2.177,-1.185 1.557,-0.403 1.744,-1.461 2.397,-1.493 0.653,-0.03 0.716,0.593 0.56,1.432 -0.156,0.84 0.778,1.805 0.871,1.961 0.092,0.155 -0.406,0.404 -1.68,0.123"
             style="fill:#F0F0F0;fill-opacity:1;fill-rule:nonzero;stroke:none"
             id="path198"
             inkscape:connector-curvature="0" /></g><g
           id="g200"
           transform="translate(53.7395,15.7484)"><path
             d="m 0,0 c -0.809,0.496 -0.28,1.307 -1.556,1.246 -1.276,-0.064 -2.8,1.524 -3.267,3.36 -0.467,1.834 -2.457,1.929 -2.956,3.019 -0.498,1.09 0.467,1.213 0.032,2.115 -0.243,0.502 0.294,0.947 0.928,1.198 -0.052,0.998 0.033,2.085 0.11,2.791 -0.494,0.051 -0.919,0.123 -1.07,0.212 -0.235,0.141 -0.281,0.889 -0.421,0.889 -0.14,0 -1.446,0 -1.681,-0.234 -0.233,-0.234 -0.933,-0.655 -1.307,-0.42 -0.08,0.049 -0.169,0.099 -0.26,0.144 l -0.407,-0.379 c 0,0 -0.063,-0.498 -0.313,-0.498 -0.247,0 -0.622,0.186 -0.622,-0.248 0,-0.436 -0.685,-0.311 -0.995,-0.25 -0.311,0.063 -0.747,-0.061 -0.747,-0.435 0,-0.373 -0.063,-1.184 -0.56,-0.748 -0.498,0.437 -0.998,1.557 -1.184,1.433 -0.186,-0.125 -0.621,-1.494 -1.057,-1.494 -0.27,0 -1.157,-0.07 -1.795,-0.127 -0.168,-0.536 0.011,-0.855 0.238,-0.994 0.234,-0.139 -0.14,-0.699 -0.42,-0.84 -0.279,-0.139 -0.747,0 -0.419,-0.512 0.327,-0.513 0.933,-0.56 0.606,-1.074 -0.326,-0.513 0,-0.98 0.467,-1.027 0.467,-0.047 1.121,0.047 0.98,-0.328 -0.082,-0.219 -0.209,-0.468 -0.237,-0.712 0.368,0.106 0.692,0.124 1.016,0.294 0.654,0.34 0.374,0.932 1.461,1.244 1.09,0.311 2.522,-0.592 2.957,-1.244 0.436,-0.654 0.561,-0.717 0.654,-1.247 0.094,-0.528 0.498,-1.587 1.991,-2.551 1.494,-0.966 2.087,-2.054 2.863,-2.458 0.779,-0.406 1.557,-0.312 2.024,-0.872 0.467,-0.56 1.089,-0.871 1.836,-1.214 0.746,-0.344 0.777,-1.15 1.493,-1.245 0.715,-0.093 0.249,-0.716 0.684,-1.244 0.435,-0.529 0.561,-1.65 0.094,-2.273 -0.467,-0.623 -0.219,-1.679 0.094,-1.679 0.31,0 0.964,1.12 1.058,1.742 0.091,0.623 0.715,0.59 1.212,1.245 0.498,0.653 -0.746,0.81 -0.962,1.649 -0.219,0.841 0.933,1.588 2.021,0.904 C 3.671,-3.547 4.108,-4.015 4.169,-2.957 4.232,-1.899 0.809,-0.498 0,0 Z m -15.249,-0.996 c -0.683,-0.592 -1.248,0.103 -1.523,-0.373 -0.344,-0.592 1.057,-1.493 0.776,-2.707 -0.28,-1.213 0.156,-2.738 0.871,-2.024 0.716,0.715 1.06,0.373 1.463,0.904 0.404,0.527 0.063,2.488 0.343,3.422 0.28,0.933 -1.245,1.37 -1.93,0.778 z m 12.044,-7.065 c -1.277,-0.279 -1.805,-0.373 -2.551,0 -0.748,0.374 -1.957,-0.339 -1.774,-0.838 0.124,-0.344 0.623,-0.779 2.177,-1.185 1.557,-0.403 1.744,-1.461 2.397,-1.493 0.653,-0.03 0.716,0.593 0.56,1.432 -0.156,0.84 0.778,1.805 0.871,1.961 0.092,0.155 -0.406,0.404 -1.68,0.123 z"
             style="fill:none;stroke:#ffffff;stroke-width:0.25;stroke-linecap:butt;stroke-linejoin:miter;stroke-miterlimit:10;stroke-dasharray:none;stroke-opacity:1"
             id="path202"
             inkscape:connector-curvature="0" /></g><g
           id="g204"
           transform="translate(58.8391,20.8714)"><path
             d="m 0,0 c -0.432,-0.582 -0.854,-1.32 -0.806,-1.562 0.022,-0.106 -0.014,-0.345 -0.087,-0.652 0.555,-0.448 1.092,-0.899 1.488,-1.104 0.04,-0.022 0.074,-0.039 0.112,-0.059 0.123,0.691 0.6,1.405 0.945,1.488 C 1.169,-1.296 0.458,-0.459 0,0"
             style="fill:#F0F0F0;fill-opacity:1;fill-rule:nonzero;stroke:none"
             id="path206"
             inkscape:connector-curvature="0" /></g><g
           id="g208"
           transform="translate(58.8391,20.8714)"><path
             d="m 0,0 c -0.432,-0.582 -0.854,-1.32 -0.806,-1.562 0.022,-0.106 -0.014,-0.345 -0.087,-0.652 0.555,-0.448 1.092,-0.899 1.488,-1.104 0.04,-0.022 0.074,-0.039 0.112,-0.059 0.123,0.691 0.6,1.405 0.945,1.488 C 1.169,-1.296 0.458,-0.459 0,0 Z"
             style="fill:none;stroke:#ffffff;stroke-width:0.25;stroke-linecap:butt;stroke-linejoin:miter;stroke-miterlimit:10;stroke-dasharray:none;stroke-opacity:1"
             id="path210"
             inkscape:connector-curvature="0" /></g><g
           id="g212"
           transform="translate(66.218,21.3812)"><path
             d="m 0,0 c -0.468,0.422 -0.42,1.166 0,1.447 0.42,0.282 0.046,0.655 0.046,1.12 0,0.468 -2.006,0.608 -2.334,0.701 -0.326,0.093 0.234,1.307 -0.279,1.307 -0.515,0 -0.701,0.372 -0.701,0.747 0,0.373 -0.794,0.981 -0.747,1.214 0.007,0.032 0.03,0.064 0.058,0.095 -0.288,0.043 -0.51,0.079 -0.592,0.097 -0.347,0.068 -0.903,0.276 -0.903,0.276 0,0 -1.295,-0.418 -2.194,-0.692 0.061,-0.548 0.205,-1.144 0.549,-1.273 0.669,-0.251 0.419,-0.919 0.669,-1.506 0.251,-0.586 0.167,-3.262 -0.167,-3.262 -0.141,0 -0.466,-0.347 -0.784,-0.781 0.458,-0.459 1.169,-1.296 1.652,-1.888 0.022,0.005 0.044,0.018 0.065,0.018 0.417,0 1.948,-1.114 1.948,-1.114 0,0 2.166,0.451 3.626,0.663 0.022,0.224 0.067,0.48 0.041,0.638 -0.047,0.28 0.281,0.839 0.7,0.839 C 1.073,-1.354 0.466,-0.42 0,0"
             style="fill:#F0F0F0;fill-opacity:1;fill-rule:nonzero;stroke:none"
             id="path214"
             inkscape:connector-curvature="0" /></g><g
           id="g216"
           transform="translate(66.218,21.3812)"><path
             d="m 0,0 c -0.468,0.422 -0.42,1.166 0,1.447 0.42,0.282 0.046,0.655 0.046,1.12 0,0.468 -2.006,0.608 -2.334,0.701 -0.326,0.093 0.234,1.307 -0.279,1.307 -0.515,0 -0.701,0.372 -0.701,0.747 0,0.373 -0.794,0.981 -0.747,1.214 0.007,0.032 0.03,0.064 0.058,0.095 -0.288,0.043 -0.51,0.079 -0.592,0.097 -0.347,0.068 -0.903,0.276 -0.903,0.276 0,0 -1.295,-0.418 -2.194,-0.692 0.061,-0.548 0.205,-1.144 0.549,-1.273 0.669,-0.251 0.419,-0.919 0.669,-1.506 0.251,-0.586 0.167,-3.262 -0.167,-3.262 -0.141,0 -0.466,-0.347 -0.784,-0.781 0.458,-0.459 1.169,-1.296 1.652,-1.888 0.022,0.005 0.044,0.018 0.065,0.018 0.417,0 1.948,-1.114 1.948,-1.114 0,0 2.166,0.451 3.626,0.663 0.022,0.224 0.067,0.48 0.041,0.638 -0.047,0.28 0.281,0.839 0.7,0.839 C 1.073,-1.354 0.466,-0.42 0,0 Z"
             style="fill:none;stroke:#ffffff;stroke-width:0.25;stroke-linecap:butt;stroke-linejoin:miter;stroke-miterlimit:10;stroke-dasharray:none;stroke-opacity:1"
             id="path218"
             inkscape:connector-curvature="0" /></g></g></g></g></svg>